0, 0, Header, 1, 20, 120
1, 0, Start_track
1, 0, Time_signature, 4, 2, 24, 8
1, 0, Key_signature, 0, "major"
1, 0, Tempo, 428571
1, 4320, Tempo, 545455
1, 9600, Tempo, 600000
1, 9720, Tempo, 666667
1, 9840, Tempo, 750000
1, 9960, Tempo, 1200000
1, 10080, Tempo, 400000
1, 10080, End_track
2, 0, Start_track
2, 0, Title_t, "Soft karaoke"
2, 0, Text_t, "@KMIDI KARAOKE FILE"
2, 0, End_track
3, 0, Start_track
3, 0, Title_t, "Words"
3, 0, Text_t, "@LWords & Music by Seymour Simons & Gerald Marks"
3, 0, Text_t, "@TAll Of Me 1931 Vs2"
3, 0, Text_t, "@Tby James Pitt-Payne, London UK - 29Jan2017"
3, 0, Text_t, "@T2017"
3, 4380, Text_t, "\\You"
3, 4440, Text_t, " took"
3, 4500, Text_t, " my"
3, 4560, Text_t, " kiss"
3, 4620, Text_t, "es"
3, 4740, Text_t, "/and"
3, 4800, Text_t, " you"
3, 4860, Text_t, " took"
3, 4920, Text_t, " my"
3, 4980, Text_t, " love,"
3, 5340, Text_t, "/you"
3, 5400, Text_t, " taught"
3, 5460, Text_t, " me"
3, 5520, Text_t, " how"
3, 5640, Text_t, " to"
3, 5760, Text_t, " care;"
3, 6240, Text_t, "/am"
3, 6300, Text_t, " I"
3, 6360, Text_t, " to"
3, 6420, Text_t, " be"
3, 6540, Text_t, " just"
3, 6660, Text_t, " the"
3, 6720, Text_t, " rem"
3, 6840, Text_t, "nant"
3, 6900, Text_t, " of"
3, 7140, Text_t, "/a"
3, 7200, Text_t, " one"
3, 7260, Text_t, " sid"
3, 7320, Text_t, "ed"
3, 7380, Text_t, " love"
3, 7560, Text_t, " af"
3, 7680, Text_t, "fair?"
3, 8160, Text_t, "/All"
3, 8280, Text_t, " you"
3, 8400, Text_t, " took,"
3, 8520, Text_t, " I"
3, 8640, Text_t, " glad"
3, 8760, Text_t, "ly"
3, 8880, Text_t, " gave,"
3, 9060, Text_t, "/There's"
3, 9120, Text_t, " noth"
3, 9240, Text_t, "ing"
3, 9360, Text_t, " left"
3, 9480, Text_t, " for"
3, 9600, Text_t, " me"
3, 9720, Text_t, " to"
3, 9840, Text_t, " save."
3, 10080, Text_t, "\\All"
3, 10260, Text_t, " of"
3, 10320, Text_t, " me,"
3, 10800, Text_t, " why"
3, 10880, Text_t, " not"
3, 10960, Text_t, " take"
3, 11040, Text_t, " all"
3, 11220, Text_t, " of"
3, 11280, Text_t, " me,"
3, 12000, Text_t, "/can't"
3, 12180, Text_t, " you"
3, 12240, Text_t, " see"
3, 12600, Text_t, "/I'm"
3, 12720, Text_t, " no"
3, 12800, Text_t, " good"
3, 12880, Text_t, " with"
3, 12960, Text_t, "out"
3, 13200, Text_t, " you."
3, 13920, Text_t, "/Take"
3, 14100, Text_t, " my"
3, 14160, Text_t, " lips,"
3, 14640, Text_t, "/I"
3, 14720, Text_t, " want"
3, 14800, Text_t, " to"
3, 14880, Text_t, " lose"
3, 15120, Text_t, " them,"
3, 15840, Text_t, "/take"
3, 16020, Text_t, " my"
3, 16080, Text_t, " arms,"
3, 16560, Text_t, "/I'll"
3, 16640, Text_t, " nev"
3, 16720, Text_t, "er"
3, 16800, Text_t, " use"
3, 17280, Text_t, " them,"
3, 17760, Text_t, "/Your"
3, 17940, Text_t, " good"
3, 18000, Text_t, "bye"
3, 18480, Text_t, "/left"
3, 18560, Text_t, " me"
3, 18640, Text_t, " with"
3, 18720, Text_t, " eyes"
3, 18900, Text_t, " that"
3, 18960, Text_t, " cry,"
3, 19680, Text_t, "/how"
3, 19860, Text_t, " can"
3, 19920, Text_t, " I"
3, 20280, Text_t, "/go"
3, 20400, Text_t, " on"
3, 20480, Text_t, " dear"
3, 20560, Text_t, " with"
3, 20640, Text_t, "out"
3, 20880, Text_t, " you."
3, 21600, Text_t, "/You"
3, 21840, Text_t, " took"
3, 21960, Text_t, " the"
3, 22080, Text_t, " part"
3, 22440, Text_t, "/that"
3, 22560, Text_t, " once"
3, 22800, Text_t, " was"
3, 22920, Text_t, " my"
3, 23040, Text_t, " heart,"
3, 23400, Text_t, "/so"
3, 23520, Text_t, " why"
3, 23760, Text_t, " not"
3, 23880, Text_t, " take"
3, 24000, Text_t, " all"
3, 24240, Text_t, " of"
3, 24480, Text_t, " me."
3, 25440, Text_t, "\\All"
3, 25620, Text_t, " of"
3, 25680, Text_t, " me,"
3, 26160, Text_t, " why"
3, 26240, Text_t, " not"
3, 26320, Text_t, " take"
3, 26400, Text_t, " all"
3, 26580, Text_t, " of"
3, 26640, Text_t, " me,"
3, 27360, Text_t, "/can't"
3, 27540, Text_t, " you"
3, 27600, Text_t, " see"
3, 27960, Text_t, "/I'm"
3, 28080, Text_t, " no"
3, 28160, Text_t, " good"
3, 28240, Text_t, " with"
3, 28320, Text_t, "out"
3, 28560, Text_t, " you."
3, 29280, Text_t, "/Take"
3, 29460, Text_t, " my"
3, 29520, Text_t, " lips,"
3, 30000, Text_t, "/I"
3, 30080, Text_t, " want"
3, 30160, Text_t, " to"
3, 30240, Text_t, " lose"
3, 30480, Text_t, " them,"
3, 31200, Text_t, "/take"
3, 31380, Text_t, " my"
3, 31440, Text_t, " arms,"
3, 31920, Text_t, "/I'll"
3, 32000, Text_t, " nev"
3, 32080, Text_t, "er"
3, 32160, Text_t, " use"
3, 32640, Text_t, " them,"
3, 33120, Text_t, "/Your"
3, 33300, Text_t, " good"
3, 33360, Text_t, "bye"
3, 33840, Text_t, "/left"
3, 33920, Text_t, " me"
3, 34000, Text_t, " with"
3, 34080, Text_t, " eyes"
3, 34260, Text_t, " that"
3, 34320, Text_t, " cry,"
3, 35040, Text_t, "/how"
3, 35220, Text_t, " can"
3, 35280, Text_t, " I"
3, 35640, Text_t, "/go"
3, 35760, Text_t, " on"
3, 35840, Text_t, " dear"
3, 35920, Text_t, " with"
3, 36000, Text_t, "out"
3, 36240, Text_t, " you."
3, 36960, Text_t, "/You"
3, 37200, Text_t, " took"
3, 37320, Text_t, " the"
3, 37440, Text_t, " part"
3, 37800, Text_t, "/that"
3, 37920, Text_t, " once"
3, 38160, Text_t, " was"
3, 38280, Text_t, " my"
3, 38400, Text_t, " heart,"
3, 38760, Text_t, "/so"
3, 38880, Text_t, " why"
3, 39120, Text_t, " not"
3, 39240, Text_t, " take"
3, 39360, Text_t, " all"
3, 39600, Text_t, " of"
3, 39840, Text_t, " me."
3, 39840, End_track
4, 0, Start_track
4, 0, MIDI_port, 0
4, 0, Title_t, "piano 1"
4, 0, Control_c, 0, 0, 0
4, 0, Control_c, 0, 32, 1
4, 0, Program_c, 0, 0
4, 0, Control_c, 0, 7, 120
4, 0, Control_c, 0, 10, 80
4, 480, Note_on_c, 0, 74, 75
4, 720, Note_on_c, 0, 74, 0
4, 720, Note_on_c, 0, 72, 75
4, 840, Note_on_c, 0, 72, 0
4, 840, Note_on_c, 0, 71, 75
4, 960, Note_on_c, 0, 71, 0
4, 960, Note_on_c, 0, 74, 75
4, 1320, Note_on_c, 0, 74, 0
4, 1320, Note_on_c, 0, 72, 75
4, 1440, Note_on_c, 0, 72, 0
4, 1440, Note_on_c, 0, 71, 75
4, 1680, Note_on_c, 0, 71, 0
4, 1680, Note_on_c, 0, 64, 75
4, 1800, Note_on_c, 0, 64, 0
4, 1800, Note_on_c, 0, 67, 75
4, 1920, Note_on_c, 0, 67, 0
4, 1920, Note_on_c, 0, 71, 75
4, 2280, Note_on_c, 0, 71, 0
4, 2280, Note_on_c, 0, 69, 75
4, 2400, Note_on_c, 0, 69, 0
4, 2400, Note_on_c, 0, 72, 75
4, 2640, Note_on_c, 0, 72, 0
4, 2640, Note_on_c, 0, 69, 75
4, 2760, Note_on_c, 0, 69, 0
4, 2760, Note_on_c, 0, 72, 75
4, 2880, Note_on_c, 0, 72, 0
4, 2880, Note_on_c, 0, 76, 75
4, 3120, Note_on_c, 0, 76, 0
4, 3120, Note_on_c, 0, 76, 75
4, 3360, Note_on_c, 0, 76, 0
4, 3360, Note_on_c, 0, 72, 75
4, 3600, Note_on_c, 0, 72, 0
4, 3600, Note_on_c, 0, 84, 75
4, 3840, Note_on_c, 0, 84, 0
4, 3840, Note_on_c, 0, 84, 75
4, 4080, Note_on_c, 0, 84, 0
4, 4080, Note_on_c, 0, 84, 75
4, 4080, Note_on_c, 0, 88, 75
4, 4080, Note_on_c, 0, 91, 75
4, 4080, Note_on_c, 0, 96, 75
4, 4200, Note_on_c, 0, 96, 0
4, 4200, Note_on_c, 0, 84, 0
4, 4200, Note_on_c, 0, 88, 0
4, 4200, Note_on_c, 0, 91, 0
4, 4200, End_track
5, 0, Start_track
5, 0, MIDI_port, 0
5, 0, Title_t, "oboe"
5, 0, Control_c, 1, 0, 0
5, 0, Control_c, 1, 32, 1
5, 0, Program_c, 1, 68
5, 0, Control_c, 1, 7, 120
5, 0, Control_c, 1, 10, 60
5, 4380, Note_on_c, 1, 67, 62
5, 4440, Note_on_c, 1, 67, 0
5, 4440, Note_on_c, 1, 67, 62
5, 4500, Note_on_c, 1, 67, 0
5, 4500, Note_on_c, 1, 67, 62
5, 4560, Note_on_c, 1, 67, 0
5, 4560, Note_on_c, 1, 67, 62
5, 4620, Note_on_c, 1, 67, 0
5, 4620, Note_on_c, 1, 70, 62
5, 4740, Note_on_c, 1, 70, 0
5, 4740, Note_on_c, 1, 69, 62
5, 4800, Note_on_c, 1, 69, 0
5, 4800, Note_on_c, 1, 67, 62
5, 4860, Note_on_c, 1, 67, 0
5, 4860, Note_on_c, 1, 74, 62
5, 4920, Note_on_c, 1, 74, 0
5, 4920, Note_on_c, 1, 71, 62
5, 4980, Note_on_c, 1, 71, 0
5, 4980, Note_on_c, 1, 67, 62
5, 5280, Note_on_c, 1, 67, 0
5, 5340, Note_on_c, 1, 72, 62
5, 5400, Note_on_c, 1, 72, 0
5, 5400, Note_on_c, 1, 72, 62
5, 5460, Note_on_c, 1, 72, 0
5, 5460, Note_on_c, 1, 72, 62
5, 5520, Note_on_c, 1, 72, 0
5, 5520, Note_on_c, 1, 74, 62
5, 5640, Note_on_c, 1, 74, 0
5, 5640, Note_on_c, 1, 72, 62
5, 5760, Note_on_c, 1, 72, 0
5, 5760, Note_on_c, 1, 67, 62
5, 6240, Note_on_c, 1, 67, 0
5, 6240, Note_on_c, 1, 67, 62
5, 6300, Note_on_c, 1, 67, 0
5, 6300, Note_on_c, 1, 67, 62
5, 6360, Note_on_c, 1, 67, 0
5, 6360, Note_on_c, 1, 67, 62
5, 6420, Note_on_c, 1, 67, 0
5, 6420, Note_on_c, 1, 67, 62
5, 6540, Note_on_c, 1, 67, 0
5, 6540, Note_on_c, 1, 69, 62
5, 6660, Note_on_c, 1, 69, 0
5, 6660, Note_on_c, 1, 67, 62
5, 6720, Note_on_c, 1, 67, 0
5, 6720, Note_on_c, 1, 74, 62
5, 6840, Note_on_c, 1, 74, 0
5, 6840, Note_on_c, 1, 71, 62
5, 6900, Note_on_c, 1, 71, 0
5, 6900, Note_on_c, 1, 67, 62
5, 7140, Note_on_c, 1, 67, 0
5, 7140, Note_on_c, 1, 64, 62
5, 7200, Note_on_c, 1, 64, 0
5, 7200, Note_on_c, 1, 72, 62
5, 7260, Note_on_c, 1, 72, 0
5, 7260, Note_on_c, 1, 64, 62
5, 7320, Note_on_c, 1, 64, 0
5, 7320, Note_on_c, 1, 67, 62
5, 7380, Note_on_c, 1, 67, 0
5, 7380, Note_on_c, 1, 71, 62
5, 7560, Note_on_c, 1, 71, 0
5, 7560, Note_on_c, 1, 71, 62
5, 7680, Note_on_c, 1, 71, 0
5, 7680, Note_on_c, 1, 67, 62
5, 8160, Note_on_c, 1, 67, 0
5, 8160, Note_on_c, 1, 76, 62
5, 8280, Note_on_c, 1, 76, 0
5, 8280, Note_on_c, 1, 74, 62
5, 8400, Note_on_c, 1, 74, 0
5, 8400, Note_on_c, 1, 72, 62
5, 8520, Note_on_c, 1, 72, 0
5, 8520, Note_on_c, 1, 71, 62
5, 8640, Note_on_c, 1, 71, 0
5, 8640, Note_on_c, 1, 74, 62
5, 8760, Note_on_c, 1, 74, 0
5, 8760, Note_on_c, 1, 72, 62
5, 8880, Note_on_c, 1, 72, 0
5, 8880, Note_on_c, 1, 71, 62
5, 9060, Note_on_c, 1, 71, 0
5, 9060, Note_on_c, 1, 69, 62
5, 9120, Note_on_c, 1, 69, 0
5, 9120, Note_on_c, 1, 72, 62
5, 9240, Note_on_c, 1, 72, 0
5, 9240, Note_on_c, 1, 71, 62
5, 9360, Note_on_c, 1, 71, 0
5, 9360, Note_on_c, 1, 69, 62
5, 9480, Note_on_c, 1, 69, 0
5, 9480, Note_on_c, 1, 67, 62
5, 9600, Note_on_c, 1, 67, 0
5, 9600, Note_on_c, 1, 70, 62
5, 9720, Note_on_c, 1, 70, 0
5, 9720, Note_on_c, 1, 68, 62
5, 9840, Note_on_c, 1, 68, 0
5, 9840, Note_on_c, 1, 67, 62
5, 10080, Note_on_c, 1, 67, 0
5, 24480, Note_on_c, 1, 72, 70
5, 24600, Note_on_c, 1, 72, 0
5, 24600, Note_on_c, 1, 74, 70
5, 24660, Note_on_c, 1, 74, 0
5, 24660, Note_on_c, 1, 72, 70
5, 24720, Note_on_c, 1, 72, 0
5, 24720, Note_on_c, 1, 71, 70
5, 24840, Note_on_c, 1, 71, 0
5, 24840, Note_on_c, 1, 70, 70
5, 24960, Note_on_c, 1, 70, 0
5, 25080, Note_on_c, 1, 67, 70
5, 25200, Note_on_c, 1, 67, 0
5, 25200, Note_on_c, 1, 69, 70
5, 25320, Note_on_c, 1, 69, 0
5, 25320, Note_on_c, 1, 67, 70
5, 25440, Note_on_c, 1, 67, 0
5, 39840, Note_on_c, 1, 72, 70
5, 39960, Note_on_c, 1, 72, 0
5, 39960, End_track
6, 0, Start_track
6, 0, MIDI_port, 0
6, 0, Title_t, "clarinet"
6, 0, Control_c, 2, 0, 0
6, 0, Control_c, 2, 32, 1
6, 0, Program_c, 2, 71
6, 0, Control_c, 2, 7, 120
6, 0, Control_c, 2, 10, 45
6, 10080, Note_on_c, 2, 72, 70
6, 10260, Note_on_c, 2, 72, 0
6, 10260, Note_on_c, 2, 67, 70
6, 10320, Note_on_c, 2, 67, 0
6, 10320, Note_on_c, 2, 64, 70
6, 10800, Note_on_c, 2, 64, 0
6, 10800, Note_on_c, 2, 72, 70
6, 10880, Note_on_c, 2, 72, 0
6, 10880, Note_on_c, 2, 74, 70
6, 10960, Note_on_c, 2, 74, 0
6, 10960, Note_on_c, 2, 72, 70
6, 11040, Note_on_c, 2, 72, 0
6, 11040, Note_on_c, 2, 71, 70
6, 11220, Note_on_c, 2, 71, 0
6, 11220, Note_on_c, 2, 68, 70
6, 11280, Note_on_c, 2, 68, 0
6, 11280, Note_on_c, 2, 64, 70
6, 12000, Note_on_c, 2, 64, 0
6, 12000, Note_on_c, 2, 69, 70
6, 12180, Note_on_c, 2, 69, 0
6, 12180, Note_on_c, 2, 67, 70
6, 12240, Note_on_c, 2, 67, 0
6, 12240, Note_on_c, 2, 64, 70
6, 12600, Note_on_c, 2, 64, 0
6, 12600, Note_on_c, 2, 63, 70
6, 12720, Note_on_c, 2, 63, 0
6, 12720, Note_on_c, 2, 64, 70
6, 12800, Note_on_c, 2, 64, 0
6, 12800, Note_on_c, 2, 70, 70
6, 12880, Note_on_c, 2, 70, 0
6, 12880, Note_on_c, 2, 69, 70
6, 12960, Note_on_c, 2, 69, 0
6, 12960, Note_on_c, 2, 67, 70
6, 13200, Note_on_c, 2, 67, 0
6, 13200, Note_on_c, 2, 65, 70
6, 13920, Note_on_c, 2, 65, 0
6, 13920, Note_on_c, 2, 64, 70
6, 14100, Note_on_c, 2, 64, 0
6, 14100, Note_on_c, 2, 63, 70
6, 14160, Note_on_c, 2, 63, 0
6, 14160, Note_on_c, 2, 62, 70
6, 14640, Note_on_c, 2, 62, 0
6, 14640, Note_on_c, 2, 64, 70
6, 14720, Note_on_c, 2, 64, 0
6, 14720, Note_on_c, 2, 68, 70
6, 14800, Note_on_c, 2, 68, 0
6, 14800, Note_on_c, 2, 71, 70
6, 14880, Note_on_c, 2, 71, 0
6, 14880, Note_on_c, 2, 74, 70
6, 15120, Note_on_c, 2, 74, 0
6, 15120, Note_on_c, 2, 72, 70
6, 15840, Note_on_c, 2, 72, 0
6, 15840, Note_on_c, 2, 71, 70
6, 16020, Note_on_c, 2, 71, 0
6, 16020, Note_on_c, 2, 70, 70
6, 16080, Note_on_c, 2, 70, 0
6, 16080, Note_on_c, 2, 69, 70
6, 16560, Note_on_c, 2, 69, 0
6, 16560, Note_on_c, 2, 69, 70
6, 16640, Note_on_c, 2, 69, 0
6, 16640, Note_on_c, 2, 74, 70
6, 16720, Note_on_c, 2, 74, 0
6, 16720, Note_on_c, 2, 71, 70
6, 16800, Note_on_c, 2, 71, 0
6, 16800, Note_on_c, 2, 69, 70
6, 17280, Note_on_c, 2, 69, 0
6, 17280, Note_on_c, 2, 71, 70
6, 17760, Note_on_c, 2, 71, 0
6, 17760, Note_on_c, 2, 72, 70
6, 17940, Note_on_c, 2, 72, 0
6, 17940, Note_on_c, 2, 67, 70
6, 18000, Note_on_c, 2, 67, 0
6, 18000, Note_on_c, 2, 64, 70
6, 18480, Note_on_c, 2, 64, 0
6, 18480, Note_on_c, 2, 72, 70
6, 18560, Note_on_c, 2, 72, 0
6, 18560, Note_on_c, 2, 74, 70
6, 18640, Note_on_c, 2, 74, 0
6, 18640, Note_on_c, 2, 72, 70
6, 18720, Note_on_c, 2, 72, 0
6, 18720, Note_on_c, 2, 71, 70
6, 18900, Note_on_c, 2, 71, 0
6, 18900, Note_on_c, 2, 68, 70
6, 18960, Note_on_c, 2, 68, 0
6, 18960, Note_on_c, 2, 64, 70
6, 19680, Note_on_c, 2, 64, 0
6, 19680, Note_on_c, 2, 69, 70
6, 19860, Note_on_c, 2, 69, 0
6, 19860, Note_on_c, 2, 67, 70
6, 19920, Note_on_c, 2, 67, 0
6, 19920, Note_on_c, 2, 64, 70
6, 20280, Note_on_c, 2, 64, 0
6, 20280, Note_on_c, 2, 63, 70
6, 20400, Note_on_c, 2, 63, 0
6, 20400, Note_on_c, 2, 64, 70
6, 20480, Note_on_c, 2, 64, 0
6, 20480, Note_on_c, 2, 70, 70
6, 20560, Note_on_c, 2, 70, 0
6, 20560, Note_on_c, 2, 69, 70
6, 20640, Note_on_c, 2, 69, 0
6, 20640, Note_on_c, 2, 67, 70
6, 20880, Note_on_c, 2, 67, 0
6, 20880, Note_on_c, 2, 65, 70
6, 21600, Note_on_c, 2, 65, 0
6, 21600, Note_on_c, 2, 74, 70
6, 21840, Note_on_c, 2, 74, 0
6, 21840, Note_on_c, 2, 72, 70
6, 21960, Note_on_c, 2, 72, 0
6, 21960, Note_on_c, 2, 71, 70
6, 22080, Note_on_c, 2, 71, 0
6, 22080, Note_on_c, 2, 74, 70
6, 22440, Note_on_c, 2, 74, 0
6, 22440, Note_on_c, 2, 72, 70
6, 22560, Note_on_c, 2, 72, 0
6, 22560, Note_on_c, 2, 71, 70
6, 22800, Note_on_c, 2, 71, 0
6, 22800, Note_on_c, 2, 64, 70
6, 22920, Note_on_c, 2, 64, 0
6, 22920, Note_on_c, 2, 67, 70
6, 23040, Note_on_c, 2, 67, 0
6, 23040, Note_on_c, 2, 71, 70
6, 23400, Note_on_c, 2, 71, 0
6, 23400, Note_on_c, 2, 69, 70
6, 23520, Note_on_c, 2, 69, 0
6, 23520, Note_on_c, 2, 72, 70
6, 23760, Note_on_c, 2, 72, 0
6, 23760, Note_on_c, 2, 68, 70
6, 23880, Note_on_c, 2, 68, 0
6, 23880, Note_on_c, 2, 72, 70
6, 24000, Note_on_c, 2, 72, 0
6, 24000, Note_on_c, 2, 76, 70
6, 24240, Note_on_c, 2, 76, 0
6, 24240, Note_on_c, 2, 76, 70
6, 24480, Note_on_c, 2, 76, 0
6, 24480, Note_on_c, 2, 72, 70
6, 24960, Note_on_c, 2, 72, 0
6, 25440, Note_on_c, 2, 72, 70
6, 25620, Note_on_c, 2, 72, 0
6, 25620, Note_on_c, 2, 67, 70
6, 25680, Note_on_c, 2, 67, 0
6, 25680, Note_on_c, 2, 64, 70
6, 26160, Note_on_c, 2, 64, 0
6, 26160, Note_on_c, 2, 72, 70
6, 26240, Note_on_c, 2, 72, 0
6, 26240, Note_on_c, 2, 74, 70
6, 26320, Note_on_c, 2, 74, 0
6, 26320, Note_on_c, 2, 72, 70
6, 26400, Note_on_c, 2, 72, 0
6, 26400, Note_on_c, 2, 71, 70
6, 26580, Note_on_c, 2, 71, 0
6, 26580, Note_on_c, 2, 68, 70
6, 26640, Note_on_c, 2, 68, 0
6, 26640, Note_on_c, 2, 64, 70
6, 27360, Note_on_c, 2, 64, 0
6, 27360, Note_on_c, 2, 69, 70
6, 27540, Note_on_c, 2, 69, 0
6, 27540, Note_on_c, 2, 67, 70
6, 27600, Note_on_c, 2, 67, 0
6, 27600, Note_on_c, 2, 64, 70
6, 27960, Note_on_c, 2, 64, 0
6, 27960, Note_on_c, 2, 63, 70
6, 28080, Note_on_c, 2, 63, 0
6, 28080, Note_on_c, 2, 64, 70
6, 28160, Note_on_c, 2, 64, 0
6, 28160, Note_on_c, 2, 70, 70
6, 28240, Note_on_c, 2, 70, 0
6, 28240, Note_on_c, 2, 69, 70
6, 28320, Note_on_c, 2, 69, 0
6, 28320, Note_on_c, 2, 67, 70
6, 28560, Note_on_c, 2, 67, 0
6, 28560, Note_on_c, 2, 65, 70
6, 29280, Note_on_c, 2, 65, 0
6, 29280, Note_on_c, 2, 64, 70
6, 29460, Note_on_c, 2, 64, 0
6, 29460, Note_on_c, 2, 63, 70
6, 29520, Note_on_c, 2, 63, 0
6, 29520, Note_on_c, 2, 62, 70
6, 30000, Note_on_c, 2, 62, 0
6, 30000, Note_on_c, 2, 64, 70
6, 30080, Note_on_c, 2, 64, 0
6, 30080, Note_on_c, 2, 68, 70
6, 30160, Note_on_c, 2, 68, 0
6, 30160, Note_on_c, 2, 71, 70
6, 30240, Note_on_c, 2, 71, 0
6, 30240, Note_on_c, 2, 74, 70
6, 30480, Note_on_c, 2, 74, 0
6, 30480, Note_on_c, 2, 72, 70
6, 31200, Note_on_c, 2, 72, 0
6, 31200, Note_on_c, 2, 71, 70
6, 31380, Note_on_c, 2, 71, 0
6, 31380, Note_on_c, 2, 70, 70
6, 31440, Note_on_c, 2, 70, 0
6, 31440, Note_on_c, 2, 69, 70
6, 31920, Note_on_c, 2, 69, 0
6, 31920, Note_on_c, 2, 69, 70
6, 32000, Note_on_c, 2, 69, 0
6, 32000, Note_on_c, 2, 74, 70
6, 32080, Note_on_c, 2, 74, 0
6, 32080, Note_on_c, 2, 71, 70
6, 32160, Note_on_c, 2, 71, 0
6, 32160, Note_on_c, 2, 69, 70
6, 32640, Note_on_c, 2, 69, 0
6, 32640, Note_on_c, 2, 71, 70
6, 33120, Note_on_c, 2, 71, 0
6, 33120, Note_on_c, 2, 72, 70
6, 33300, Note_on_c, 2, 72, 0
6, 33300, Note_on_c, 2, 67, 70
6, 33360, Note_on_c, 2, 67, 0
6, 33360, Note_on_c, 2, 64, 70
6, 33840, Note_on_c, 2, 64, 0
6, 33840, Note_on_c, 2, 72, 70
6, 33920, Note_on_c, 2, 72, 0
6, 33920, Note_on_c, 2, 74, 70
6, 34000, Note_on_c, 2, 74, 0
6, 34000, Note_on_c, 2, 72, 70
6, 34080, Note_on_c, 2, 72, 0
6, 34080, Note_on_c, 2, 71, 70
6, 34260, Note_on_c, 2, 71, 0
6, 34260, Note_on_c, 2, 68, 70
6, 34320, Note_on_c, 2, 68, 0
6, 34320, Note_on_c, 2, 64, 70
6, 35040, Note_on_c, 2, 64, 0
6, 35040, Note_on_c, 2, 69, 70
6, 35220, Note_on_c, 2, 69, 0
6, 35220, Note_on_c, 2, 67, 70
6, 35280, Note_on_c, 2, 67, 0
6, 35280, Note_on_c, 2, 64, 70
6, 35640, Note_on_c, 2, 64, 0
6, 35640, Note_on_c, 2, 63, 70
6, 35760, Note_on_c, 2, 63, 0
6, 35760, Note_on_c, 2, 64, 70
6, 35840, Note_on_c, 2, 64, 0
6, 35840, Note_on_c, 2, 70, 70
6, 35920, Note_on_c, 2, 70, 0
6, 35920, Note_on_c, 2, 69, 70
6, 36000, Note_on_c, 2, 69, 0
6, 36000, Note_on_c, 2, 67, 70
6, 36240, Note_on_c, 2, 67, 0
6, 36240, Note_on_c, 2, 65, 70
6, 36960, Note_on_c, 2, 65, 0
6, 36960, Note_on_c, 2, 74, 70
6, 37200, Note_on_c, 2, 74, 0
6, 37200, Note_on_c, 2, 72, 70
6, 37320, Note_on_c, 2, 72, 0
6, 37320, Note_on_c, 2, 71, 70
6, 37440, Note_on_c, 2, 71, 0
6, 37440, Note_on_c, 2, 74, 70
6, 37800, Note_on_c, 2, 74, 0
6, 37800, Note_on_c, 2, 72, 70
6, 37920, Note_on_c, 2, 72, 0
6, 37920, Note_on_c, 2, 71, 70
6, 38160, Note_on_c, 2, 71, 0
6, 38160, Note_on_c, 2, 64, 70
6, 38280, Note_on_c, 2, 64, 0
6, 38280, Note_on_c, 2, 67, 70
6, 38400, Note_on_c, 2, 67, 0
6, 38400, Note_on_c, 2, 71, 70
6, 38760, Note_on_c, 2, 71, 0
6, 38760, Note_on_c, 2, 69, 70
6, 38880, Note_on_c, 2, 69, 0
6, 38880, Note_on_c, 2, 72, 70
6, 39120, Note_on_c, 2, 72, 0
6, 39120, Note_on_c, 2, 68, 70
6, 39240, Note_on_c, 2, 68, 0
6, 39240, Note_on_c, 2, 72, 70
6, 39360, Note_on_c, 2, 72, 0
6, 39360, Note_on_c, 2, 76, 70
6, 39600, Note_on_c, 2, 76, 0
6, 39600, Note_on_c, 2, 76, 70
6, 39840, Note_on_c, 2, 76, 0
6, 39840, Note_on_c, 2, 72, 70
6, 40320, Note_on_c, 2, 72, 0
6, 40320, End_track
7, 0, Start_track
7, 0, MIDI_port, 0
7, 0, Title_t, "piano 4"
7, 0, Control_c, 3, 0, 0
7, 0, Control_c, 3, 32, 1
7, 0, Program_c, 3, 0
7, 0, Control_c, 3, 7, 120
7, 0, Control_c, 3, 10, 25
7, 0, End_track
8, 0, Start_track
8, 0, MIDI_port, 0
8, 0, Title_t, "lyric"
8, 0, Control_c, 4, 0, 0
8, 0, Control_c, 4, 32, 1
8, 0, Program_c, 4, 0
8, 0, Control_c, 4, 7, 10
8, 0, Control_c, 4, 10, 64
8, 4380, Note_on_c, 4, 67, 62
8, 4440, Note_on_c, 4, 67, 0
8, 4440, Note_on_c, 4, 67, 62
8, 4500, Note_on_c, 4, 67, 0
8, 4500, Note_on_c, 4, 67, 62
8, 4560, Note_on_c, 4, 67, 0
8, 4560, Note_on_c, 4, 67, 62
8, 4620, Note_on_c, 4, 67, 0
8, 4620, Note_on_c, 4, 70, 62
8, 4740, Note_on_c, 4, 70, 0
8, 4740, Note_on_c, 4, 69, 62
8, 4800, Note_on_c, 4, 69, 0
8, 4800, Note_on_c, 4, 67, 62
8, 4860, Note_on_c, 4, 67, 0
8, 4860, Note_on_c, 4, 74, 62
8, 4920, Note_on_c, 4, 74, 0
8, 4920, Note_on_c, 4, 71, 62
8, 4980, Note_on_c, 4, 71, 0
8, 4980, Note_on_c, 4, 67, 62
8, 5280, Note_on_c, 4, 67, 0
8, 5340, Note_on_c, 4, 72, 62
8, 5400, Note_on_c, 4, 72, 0
8, 5400, Note_on_c, 4, 72, 62
8, 5460, Note_on_c, 4, 72, 0
8, 5460, Note_on_c, 4, 72, 62
8, 5520, Note_on_c, 4, 72, 0
8, 5520, Note_on_c, 4, 74, 62
8, 5640, Note_on_c, 4, 74, 0
8, 5640, Note_on_c, 4, 72, 62
8, 5760, Note_on_c, 4, 72, 0
8, 5760, Note_on_c, 4, 67, 62
8, 6240, Note_on_c, 4, 67, 0
8, 6240, Note_on_c, 4, 67, 62
8, 6300, Note_on_c, 4, 67, 0
8, 6300, Note_on_c, 4, 67, 62
8, 6360, Note_on_c, 4, 67, 0
8, 6360, Note_on_c, 4, 67, 62
8, 6420, Note_on_c, 4, 67, 0
8, 6420, Note_on_c, 4, 67, 62
8, 6540, Note_on_c, 4, 67, 0
8, 6540, Note_on_c, 4, 69, 62
8, 6660, Note_on_c, 4, 69, 0
8, 6660, Note_on_c, 4, 67, 62
8, 6720, Note_on_c, 4, 67, 0
8, 6720, Note_on_c, 4, 74, 62
8, 6840, Note_on_c, 4, 74, 0
8, 6840, Note_on_c, 4, 71, 62
8, 6900, Note_on_c, 4, 71, 0
8, 6900, Note_on_c, 4, 67, 62
8, 7140, Note_on_c, 4, 67, 0
8, 7140, Note_on_c, 4, 64, 62
8, 7200, Note_on_c, 4, 64, 0
8, 7200, Note_on_c, 4, 72, 62
8, 7260, Note_on_c, 4, 72, 0
8, 7260, Note_on_c, 4, 64, 62
8, 7320, Note_on_c, 4, 64, 0
8, 7320, Note_on_c, 4, 67, 62
8, 7380, Note_on_c, 4, 67, 0
8, 7380, Note_on_c, 4, 71, 62
8, 7560, Note_on_c, 4, 71, 0
8, 7560, Note_on_c, 4, 71, 62
8, 7680, Note_on_c, 4, 71, 0
8, 7680, Note_on_c, 4, 67, 62
8, 8160, Note_on_c, 4, 67, 0
8, 8160, Note_on_c, 4, 76, 62
8, 8280, Note_on_c, 4, 76, 0
8, 8280, Note_on_c, 4, 74, 62
8, 8400, Note_on_c, 4, 74, 0
8, 8400, Note_on_c, 4, 72, 62
8, 8520, Note_on_c, 4, 72, 0
8, 8520, Note_on_c, 4, 71, 62
8, 8640, Note_on_c, 4, 71, 0
8, 8640, Note_on_c, 4, 74, 62
8, 8760, Note_on_c, 4, 74, 0
8, 8760, Note_on_c, 4, 72, 62
8, 8880, Note_on_c, 4, 72, 0
8, 8880, Note_on_c, 4, 71, 62
8, 9060, Note_on_c, 4, 71, 0
8, 9060, Note_on_c, 4, 69, 62
8, 9120, Note_on_c, 4, 69, 0
8, 9120, Note_on_c, 4, 72, 62
8, 9240, Note_on_c, 4, 72, 0
8, 9240, Note_on_c, 4, 71, 62
8, 9360, Note_on_c, 4, 71, 0
8, 9360, Note_on_c, 4, 69, 62
8, 9480, Note_on_c, 4, 69, 0
8, 9480, Note_on_c, 4, 67, 62
8, 9600, Note_on_c, 4, 67, 0
8, 9600, Note_on_c, 4, 70, 62
8, 9720, Note_on_c, 4, 70, 0
8, 9720, Note_on_c, 4, 68, 62
8, 9840, Note_on_c, 4, 68, 0
8, 9840, Note_on_c, 4, 67, 62
8, 10080, Note_on_c, 4, 67, 0
8, 10080, Note_on_c, 4, 72, 70
8, 10260, Note_on_c, 4, 72, 0
8, 10260, Note_on_c, 4, 67, 70
8, 10320, Note_on_c, 4, 67, 0
8, 10320, Note_on_c, 4, 64, 70
8, 10800, Note_on_c, 4, 64, 0
8, 10800, Note_on_c, 4, 72, 70
8, 10880, Note_on_c, 4, 72, 0
8, 10880, Note_on_c, 4, 74, 70
8, 10960, Note_on_c, 4, 74, 0
8, 10960, Note_on_c, 4, 72, 70
8, 11040, Note_on_c, 4, 72, 0
8, 11040, Note_on_c, 4, 71, 70
8, 11220, Note_on_c, 4, 71, 0
8, 11220, Note_on_c, 4, 68, 70
8, 11280, Note_on_c, 4, 68, 0
8, 11280, Note_on_c, 4, 64, 70
8, 12000, Note_on_c, 4, 64, 0
8, 12000, Note_on_c, 4, 69, 70
8, 12180, Note_on_c, 4, 69, 0
8, 12180, Note_on_c, 4, 67, 70
8, 12240, Note_on_c, 4, 67, 0
8, 12240, Note_on_c, 4, 64, 70
8, 12600, Note_on_c, 4, 64, 0
8, 12600, Note_on_c, 4, 63, 70
8, 12720, Note_on_c, 4, 63, 0
8, 12720, Note_on_c, 4, 64, 70
8, 12800, Note_on_c, 4, 64, 0
8, 12800, Note_on_c, 4, 70, 70
8, 12880, Note_on_c, 4, 70, 0
8, 12880, Note_on_c, 4, 69, 70
8, 12960, Note_on_c, 4, 69, 0
8, 12960, Note_on_c, 4, 67, 70
8, 13200, Note_on_c, 4, 67, 0
8, 13200, Note_on_c, 4, 65, 70
8, 13920, Note_on_c, 4, 65, 0
8, 13920, Note_on_c, 4, 64, 70
8, 14100, Note_on_c, 4, 64, 0
8, 14100, Note_on_c, 4, 63, 70
8, 14160, Note_on_c, 4, 63, 0
8, 14160, Note_on_c, 4, 62, 70
8, 14640, Note_on_c, 4, 62, 0
8, 14640, Note_on_c, 4, 64, 70
8, 14720, Note_on_c, 4, 64, 0
8, 14720, Note_on_c, 4, 68, 70
8, 14800, Note_on_c, 4, 68, 0
8, 14800, Note_on_c, 4, 71, 70
8, 14880, Note_on_c, 4, 71, 0
8, 14880, Note_on_c, 4, 74, 70
8, 15120, Note_on_c, 4, 74, 0
8, 15120, Note_on_c, 4, 72, 70
8, 15840, Note_on_c, 4, 72, 0
8, 15840, Note_on_c, 4, 71, 70
8, 16020, Note_on_c, 4, 71, 0
8, 16020, Note_on_c, 4, 70, 70
8, 16080, Note_on_c, 4, 70, 0
8, 16080, Note_on_c, 4, 69, 70
8, 16560, Note_on_c, 4, 69, 0
8, 16560, Note_on_c, 4, 69, 70
8, 16640, Note_on_c, 4, 69, 0
8, 16640, Note_on_c, 4, 74, 70
8, 16720, Note_on_c, 4, 74, 0
8, 16720, Note_on_c, 4, 71, 70
8, 16800, Note_on_c, 4, 71, 0
8, 16800, Note_on_c, 4, 69, 70
8, 17280, Note_on_c, 4, 69, 0
8, 17280, Note_on_c, 4, 71, 70
8, 17760, Note_on_c, 4, 71, 0
8, 17760, Note_on_c, 4, 72, 70
8, 17940, Note_on_c, 4, 72, 0
8, 17940, Note_on_c, 4, 67, 70
8, 18000, Note_on_c, 4, 67, 0
8, 18000, Note_on_c, 4, 64, 70
8, 18480, Note_on_c, 4, 64, 0
8, 18480, Note_on_c, 4, 72, 70
8, 18560, Note_on_c, 4, 72, 0
8, 18560, Note_on_c, 4, 74, 70
8, 18640, Note_on_c, 4, 74, 0
8, 18640, Note_on_c, 4, 72, 70
8, 18720, Note_on_c, 4, 72, 0
8, 18720, Note_on_c, 4, 71, 70
8, 18900, Note_on_c, 4, 71, 0
8, 18900, Note_on_c, 4, 68, 70
8, 18960, Note_on_c, 4, 68, 0
8, 18960, Note_on_c, 4, 64, 70
8, 19680, Note_on_c, 4, 64, 0
8, 19680, Note_on_c, 4, 69, 70
8, 19860, Note_on_c, 4, 69, 0
8, 19860, Note_on_c, 4, 67, 70
8, 19920, Note_on_c, 4, 67, 0
8, 19920, Note_on_c, 4, 64, 70
8, 20280, Note_on_c, 4, 64, 0
8, 20280, Note_on_c, 4, 63, 70
8, 20400, Note_on_c, 4, 63, 0
8, 20400, Note_on_c, 4, 64, 70
8, 20480, Note_on_c, 4, 64, 0
8, 20480, Note_on_c, 4, 70, 70
8, 20560, Note_on_c, 4, 70, 0
8, 20560, Note_on_c, 4, 69, 70
8, 20640, Note_on_c, 4, 69, 0
8, 20640, Note_on_c, 4, 67, 70
8, 20880, Note_on_c, 4, 67, 0
8, 20880, Note_on_c, 4, 65, 70
8, 21600, Note_on_c, 4, 65, 0
8, 21600, Note_on_c, 4, 74, 70
8, 21840, Note_on_c, 4, 74, 0
8, 21840, Note_on_c, 4, 72, 70
8, 21960, Note_on_c, 4, 72, 0
8, 21960, Note_on_c, 4, 71, 70
8, 22080, Note_on_c, 4, 71, 0
8, 22080, Note_on_c, 4, 74, 70
8, 22440, Note_on_c, 4, 74, 0
8, 22440, Note_on_c, 4, 72, 70
8, 22560, Note_on_c, 4, 72, 0
8, 22560, Note_on_c, 4, 71, 70
8, 22800, Note_on_c, 4, 71, 0
8, 22800, Note_on_c, 4, 64, 70
8, 22920, Note_on_c, 4, 64, 0
8, 22920, Note_on_c, 4, 67, 70
8, 23040, Note_on_c, 4, 67, 0
8, 23040, Note_on_c, 4, 71, 70
8, 23400, Note_on_c, 4, 71, 0
8, 23400, Note_on_c, 4, 69, 70
8, 23520, Note_on_c, 4, 69, 0
8, 23520, Note_on_c, 4, 72, 70
8, 23760, Note_on_c, 4, 72, 0
8, 23760, Note_on_c, 4, 68, 70
8, 23880, Note_on_c, 4, 68, 0
8, 23880, Note_on_c, 4, 72, 70
8, 24000, Note_on_c, 4, 72, 0
8, 24000, Note_on_c, 4, 76, 70
8, 24240, Note_on_c, 4, 76, 0
8, 24240, Note_on_c, 4, 76, 70
8, 24480, Note_on_c, 4, 76, 0
8, 24480, Note_on_c, 4, 72, 70
8, 24960, Note_on_c, 4, 72, 0
8, 25440, Note_on_c, 4, 72, 70
8, 25620, Note_on_c, 4, 72, 0
8, 25620, Note_on_c, 4, 67, 70
8, 25680, Note_on_c, 4, 67, 0
8, 25680, Note_on_c, 4, 64, 70
8, 26160, Note_on_c, 4, 64, 0
8, 26160, Note_on_c, 4, 72, 70
8, 26240, Note_on_c, 4, 72, 0
8, 26240, Note_on_c, 4, 74, 70
8, 26320, Note_on_c, 4, 74, 0
8, 26320, Note_on_c, 4, 72, 70
8, 26400, Note_on_c, 4, 72, 0
8, 26400, Note_on_c, 4, 71, 70
8, 26580, Note_on_c, 4, 71, 0
8, 26580, Note_on_c, 4, 68, 70
8, 26640, Note_on_c, 4, 68, 0
8, 26640, Note_on_c, 4, 64, 70
8, 27360, Note_on_c, 4, 64, 0
8, 27360, Note_on_c, 4, 69, 70
8, 27540, Note_on_c, 4, 69, 0
8, 27540, Note_on_c, 4, 67, 70
8, 27600, Note_on_c, 4, 67, 0
8, 27600, Note_on_c, 4, 64, 70
8, 27960, Note_on_c, 4, 64, 0
8, 27960, Note_on_c, 4, 63, 70
8, 28080, Note_on_c, 4, 63, 0
8, 28080, Note_on_c, 4, 64, 70
8, 28160, Note_on_c, 4, 64, 0
8, 28160, Note_on_c, 4, 70, 70
8, 28240, Note_on_c, 4, 70, 0
8, 28240, Note_on_c, 4, 69, 70
8, 28320, Note_on_c, 4, 69, 0
8, 28320, Note_on_c, 4, 67, 70
8, 28560, Note_on_c, 4, 67, 0
8, 28560, Note_on_c, 4, 65, 70
8, 29280, Note_on_c, 4, 65, 0
8, 29280, Note_on_c, 4, 64, 70
8, 29460, Note_on_c, 4, 64, 0
8, 29460, Note_on_c, 4, 63, 70
8, 29520, Note_on_c, 4, 63, 0
8, 29520, Note_on_c, 4, 62, 70
8, 30000, Note_on_c, 4, 62, 0
8, 30000, Note_on_c, 4, 64, 70
8, 30080, Note_on_c, 4, 64, 0
8, 30080, Note_on_c, 4, 68, 70
8, 30160, Note_on_c, 4, 68, 0
8, 30160, Note_on_c, 4, 71, 70
8, 30240, Note_on_c, 4, 71, 0
8, 30240, Note_on_c, 4, 74, 70
8, 30480, Note_on_c, 4, 74, 0
8, 30480, Note_on_c, 4, 72, 70
8, 31200, Note_on_c, 4, 72, 0
8, 31200, Note_on_c, 4, 71, 70
8, 31380, Note_on_c, 4, 71, 0
8, 31380, Note_on_c, 4, 70, 70
8, 31440, Note_on_c, 4, 70, 0
8, 31440, Note_on_c, 4, 69, 70
8, 31920, Note_on_c, 4, 69, 0
8, 31920, Note_on_c, 4, 69, 70
8, 32000, Note_on_c, 4, 69, 0
8, 32000, Note_on_c, 4, 74, 70
8, 32080, Note_on_c, 4, 74, 0
8, 32080, Note_on_c, 4, 71, 70
8, 32160, Note_on_c, 4, 71, 0
8, 32160, Note_on_c, 4, 69, 70
8, 32640, Note_on_c, 4, 69, 0
8, 32640, Note_on_c, 4, 71, 70
8, 33120, Note_on_c, 4, 71, 0
8, 33120, Note_on_c, 4, 72, 70
8, 33300, Note_on_c, 4, 72, 0
8, 33300, Note_on_c, 4, 67, 70
8, 33360, Note_on_c, 4, 67, 0
8, 33360, Note_on_c, 4, 64, 70
8, 33840, Note_on_c, 4, 64, 0
8, 33840, Note_on_c, 4, 72, 70
8, 33920, Note_on_c, 4, 72, 0
8, 33920, Note_on_c, 4, 74, 70
8, 34000, Note_on_c, 4, 74, 0
8, 34000, Note_on_c, 4, 72, 70
8, 34080, Note_on_c, 4, 72, 0
8, 34080, Note_on_c, 4, 71, 70
8, 34260, Note_on_c, 4, 71, 0
8, 34260, Note_on_c, 4, 68, 70
8, 34320, Note_on_c, 4, 68, 0
8, 34320, Note_on_c, 4, 64, 70
8, 35040, Note_on_c, 4, 64, 0
8, 35040, Note_on_c, 4, 69, 70
8, 35220, Note_on_c, 4, 69, 0
8, 35220, Note_on_c, 4, 67, 70
8, 35280, Note_on_c, 4, 67, 0
8, 35280, Note_on_c, 4, 64, 70
8, 35640, Note_on_c, 4, 64, 0
8, 35640, Note_on_c, 4, 63, 70
8, 35760, Note_on_c, 4, 63, 0
8, 35760, Note_on_c, 4, 64, 70
8, 35840, Note_on_c, 4, 64, 0
8, 35840, Note_on_c, 4, 70, 70
8, 35920, Note_on_c, 4, 70, 0
8, 35920, Note_on_c, 4, 69, 70
8, 36000, Note_on_c, 4, 69, 0
8, 36000, Note_on_c, 4, 67, 70
8, 36240, Note_on_c, 4, 67, 0
8, 36240, Note_on_c, 4, 65, 70
8, 36960, Note_on_c, 4, 65, 0
8, 36960, Note_on_c, 4, 74, 70
8, 37200, Note_on_c, 4, 74, 0
8, 37200, Note_on_c, 4, 72, 70
8, 37320, Note_on_c, 4, 72, 0
8, 37320, Note_on_c, 4, 71, 70
8, 37440, Note_on_c, 4, 71, 0
8, 37440, Note_on_c, 4, 74, 70
8, 37800, Note_on_c, 4, 74, 0
8, 37800, Note_on_c, 4, 72, 70
8, 37920, Note_on_c, 4, 72, 0
8, 37920, Note_on_c, 4, 71, 70
8, 38160, Note_on_c, 4, 71, 0
8, 38160, Note_on_c, 4, 64, 70
8, 38280, Note_on_c, 4, 64, 0
8, 38280, Note_on_c, 4, 67, 70
8, 38400, Note_on_c, 4, 67, 0
8, 38400, Note_on_c, 4, 71, 70
8, 38760, Note_on_c, 4, 71, 0
8, 38760, Note_on_c, 4, 69, 70
8, 38880, Note_on_c, 4, 69, 0
8, 38880, Note_on_c, 4, 72, 70
8, 39120, Note_on_c, 4, 72, 0
8, 39120, Note_on_c, 4, 68, 70
8, 39240, Note_on_c, 4, 68, 0
8, 39240, Note_on_c, 4, 72, 70
8, 39360, Note_on_c, 4, 72, 0
8, 39360, Note_on_c, 4, 76, 70
8, 39600, Note_on_c, 4, 76, 0
8, 39600, Note_on_c, 4, 76, 70
8, 39840, Note_on_c, 4, 76, 0
8, 39840, Note_on_c, 4, 72, 70
8, 40320, Note_on_c, 4, 72, 0
8, 40320, End_track
9, 0, Start_track
9, 0, MIDI_port, 0
9, 0, Title_t, "synth str"
9, 0, Control_c, 5, 0, 0
9, 0, Control_c, 5, 32, 1
9, 0, Program_c, 5, 50
9, 0, Control_c, 5, 7, 120
9, 0, Control_c, 5, 10, 25
9, 465, Note_on_c, 5, 41, 65
9, 480, Note_on_c, 5, 57, 65
9, 480, Note_on_c, 5, 62, 65
9, 480, Note_on_c, 5, 65, 65
9, 600, Note_on_c, 5, 65, 0
9, 600, Note_on_c, 5, 62, 0
9, 600, Note_on_c, 5, 62, 65
9, 600, Note_on_c, 5, 65, 65
9, 840, Note_on_c, 5, 65, 0
9, 840, Note_on_c, 5, 62, 0
9, 840, Note_on_c, 5, 62, 65
9, 840, Note_on_c, 5, 65, 65
9, 960, Note_on_c, 5, 65, 0
9, 960, Note_on_c, 5, 41, 0
9, 960, Note_on_c, 5, 57, 0
9, 960, Note_on_c, 5, 62, 0
9, 960, Note_on_c, 5, 41, 65
9, 960, Note_on_c, 5, 56, 65
9, 960, Note_on_c, 5, 62, 65
9, 960, Note_on_c, 5, 65, 65
9, 1080, Note_on_c, 5, 65, 0
9, 1080, Note_on_c, 5, 62, 0
9, 1080, Note_on_c, 5, 62, 65
9, 1080, Note_on_c, 5, 65, 65
9, 1320, Note_on_c, 5, 65, 0
9, 1320, Note_on_c, 5, 62, 0
9, 1320, Note_on_c, 5, 62, 65
9, 1320, Note_on_c, 5, 65, 65
9, 1440, Note_on_c, 5, 65, 0
9, 1440, Note_on_c, 5, 41, 0
9, 1440, Note_on_c, 5, 56, 0
9, 1440, Note_on_c, 5, 62, 0
9, 1440, Note_on_c, 5, 40, 65
9, 1440, Note_on_c, 5, 55, 65
9, 1440, Note_on_c, 5, 60, 65
9, 1440, Note_on_c, 5, 64, 65
9, 1560, Note_on_c, 5, 64, 0
9, 1560, Note_on_c, 5, 60, 0
9, 1560, Note_on_c, 5, 60, 65
9, 1560, Note_on_c, 5, 64, 65
9, 1680, Note_on_c, 5, 64, 0
9, 1680, Note_on_c, 5, 40, 0
9, 1680, Note_on_c, 5, 55, 0
9, 1680, Note_on_c, 5, 60, 0
9, 1680, Note_on_c, 5, 46, 65
9, 1680, Note_on_c, 5, 55, 65
9, 1680, Note_on_c, 5, 62, 65
9, 1920, Note_on_c, 5, 62, 0
9, 1920, Note_on_c, 5, 55, 0
9, 1920, Note_on_c, 5, 46, 0
9, 1920, Note_on_c, 5, 45, 65
9, 1920, Note_on_c, 5, 61, 65
9, 1920, Note_on_c, 5, 67, 65
9, 2040, Note_on_c, 5, 67, 0
9, 2040, Note_on_c, 5, 61, 0
9, 2040, Note_on_c, 5, 61, 65
9, 2040, Note_on_c, 5, 67, 65
9, 2160, Note_on_c, 5, 45, 0
9, 2160, Note_on_c, 5, 57, 65
9, 2280, Note_on_c, 5, 67, 0
9, 2280, Note_on_c, 5, 61, 0
9, 2280, Note_on_c, 5, 61, 65
9, 2280, Note_on_c, 5, 67, 65
9, 2400, Note_on_c, 5, 67, 0
9, 2400, Note_on_c, 5, 61, 0
9, 2400, Note_on_c, 5, 57, 0
9, 2400, Note_on_c, 5, 60, 65
9, 2400, Note_on_c, 5, 65, 65
9, 2400, Note_on_c, 5, 68, 65
9, 2400, Note_on_c, 5, 38, 65
9, 2400, Note_on_c, 5, 50, 65
9, 2520, Note_on_c, 5, 68, 0
9, 2520, Note_on_c, 5, 60, 0
9, 2520, Note_on_c, 5, 65, 0
9, 2520, Note_on_c, 5, 60, 65
9, 2520, Note_on_c, 5, 65, 65
9, 2520, Note_on_c, 5, 68, 65
9, 2640, Note_on_c, 5, 68, 0
9, 2640, Note_on_c, 5, 60, 0
9, 2640, Note_on_c, 5, 50, 0
9, 2640, Note_on_c, 5, 38, 0
9, 2640, Note_on_c, 5, 65, 0
9, 2640, Note_on_c, 5, 60, 65
9, 2640, Note_on_c, 5, 65, 65
9, 2640, Note_on_c, 5, 68, 65
9, 2640, Note_on_c, 5, 50, 65
9, 2760, Note_on_c, 5, 68, 0
9, 2760, Note_on_c, 5, 60, 0
9, 2760, Note_on_c, 5, 65, 0
9, 2760, Note_on_c, 5, 68, 65
9, 2760, Note_on_c, 5, 65, 65
9, 2880, Note_on_c, 5, 65, 0
9, 2880, Note_on_c, 5, 68, 0
9, 2880, Note_on_c, 5, 50, 0
9, 2880, Note_on_c, 5, 67, 65
9, 2880, Note_on_c, 5, 71, 65
9, 2880, Note_on_c, 5, 43, 65
9, 3000, Note_on_c, 5, 67, 0
9, 3000, Note_on_c, 5, 66, 65
9, 3120, Note_on_c, 5, 66, 0
9, 3120, Note_on_c, 5, 43, 0
9, 3120, Note_on_c, 5, 71, 0
9, 3120, Note_on_c, 5, 69, 65
9, 3120, Note_on_c, 5, 65, 65
9, 3120, Note_on_c, 5, 55, 65
9, 3240, Note_on_c, 5, 69, 0
9, 3240, Note_on_c, 5, 71, 65
9, 3360, Note_on_c, 5, 71, 0
9, 3360, Note_on_c, 5, 55, 0
9, 3360, Note_on_c, 5, 65, 0
9, 3360, Note_on_c, 5, 64, 65
9, 3360, Note_on_c, 5, 67, 65
9, 3360, Note_on_c, 5, 36, 75
9, 3420, Note_on_c, 5, 36, 0
9, 3420, Note_on_c, 5, 43, 75
9, 3480, Note_on_c, 5, 43, 0
9, 3480, Note_on_c, 5, 48, 75
9, 3540, Note_on_c, 5, 48, 0
9, 3540, Note_on_c, 5, 52, 75
9, 3600, Note_on_c, 5, 52, 0
9, 3600, Note_on_c, 5, 67, 0
9, 3600, Note_on_c, 5, 64, 0
9, 3600, Note_on_c, 5, 72, 65
9, 3600, Note_on_c, 5, 77, 65
9, 3600, Note_on_c, 5, 80, 65
9, 3600, Note_on_c, 5, 84, 65
9, 3600, Note_on_c, 5, 53, 75
9, 3660, Note_on_c, 5, 53, 0
9, 3660, Note_on_c, 5, 56, 75
9, 3720, Note_on_c, 5, 56, 0
9, 3720, Note_on_c, 5, 60, 75
9, 3780, Note_on_c, 5, 60, 0
9, 3780, Note_on_c, 5, 62, 75
9, 3840, Note_on_c, 5, 62, 0
9, 3840, Note_on_c, 5, 84, 0
9, 3840, Note_on_c, 5, 72, 0
9, 3840, Note_on_c, 5, 77, 0
9, 3840, Note_on_c, 5, 80, 0
9, 3840, Note_on_c, 5, 72, 65
9, 3840, Note_on_c, 5, 76, 65
9, 3840, Note_on_c, 5, 79, 65
9, 3840, Note_on_c, 5, 84, 65
9, 3840, Note_on_c, 5, 48, 65
9, 3840, Note_on_c, 5, 55, 65
9, 3840, Note_on_c, 5, 64, 65
9, 4080, Note_on_c, 5, 64, 0
9, 4080, Note_on_c, 5, 48, 0
9, 4080, Note_on_c, 5, 76, 0
9, 4080, Note_on_c, 5, 79, 0
9, 4080, Note_on_c, 5, 72, 0
9, 4080, Note_on_c, 5, 55, 0
9, 4080, Note_on_c, 5, 84, 0
9, 4080, Note_on_c, 5, 84, 65
9, 4080, Note_on_c, 5, 88, 65
9, 4080, Note_on_c, 5, 91, 65
9, 4080, Note_on_c, 5, 96, 65
9, 4080, Note_on_c, 5, 36, 65
9, 4080, Note_on_c, 5, 48, 65
9, 4200, Note_on_c, 5, 48, 0
9, 4200, Note_on_c, 5, 88, 0
9, 4200, Note_on_c, 5, 91, 0
9, 4200, Note_on_c, 5, 84, 0
9, 4200, Note_on_c, 5, 36, 0
9, 4200, Note_on_c, 5, 96, 0
9, 4320, Note_on_c, 5, 36, 65
9, 4320, Note_on_c, 5, 48, 65
9, 4440, Note_on_c, 5, 60, 65
9, 4440, Note_on_c, 5, 64, 65
9, 4560, Note_on_c, 5, 64, 0
9, 4560, Note_on_c, 5, 36, 0
9, 4560, Note_on_c, 5, 48, 0
9, 4560, Note_on_c, 5, 60, 0
9, 4560, Note_on_c, 5, 58, 65
9, 4560, Note_on_c, 5, 64, 65
9, 4560, Note_on_c, 5, 37, 65
9, 4560, Note_on_c, 5, 49, 65
9, 4800, Note_on_c, 5, 49, 0
9, 4800, Note_on_c, 5, 58, 0
9, 4800, Note_on_c, 5, 64, 0
9, 4800, Note_on_c, 5, 37, 0
9, 4800, Note_on_c, 5, 59, 65
9, 4800, Note_on_c, 5, 65, 65
9, 4800, Note_on_c, 5, 38, 65
9, 4800, Note_on_c, 5, 50, 65
9, 4980, Note_on_c, 5, 65, 0
9, 4980, Note_on_c, 5, 59, 0
9, 4980, Note_on_c, 5, 59, 65
9, 4980, Note_on_c, 5, 65, 65
9, 5040, Note_on_c, 5, 38, 0
9, 5040, Note_on_c, 5, 50, 0
9, 5040, Note_on_c, 5, 55, 65
9, 5160, Note_on_c, 5, 55, 0
9, 5160, Note_on_c, 5, 43, 65
9, 5280, Note_on_c, 5, 43, 0
9, 5280, Note_on_c, 5, 59, 0
9, 5280, Note_on_c, 5, 65, 0
9, 5280, Note_on_c, 5, 40, 65
9, 5280, Note_on_c, 5, 55, 65
9, 5400, Note_on_c, 5, 60, 65
9, 5400, Note_on_c, 5, 67, 65
9, 5520, Note_on_c, 5, 67, 0
9, 5520, Note_on_c, 5, 40, 0
9, 5520, Note_on_c, 5, 55, 0
9, 5520, Note_on_c, 5, 60, 0
9, 5520, Note_on_c, 5, 60, 65
9, 5520, Note_on_c, 5, 66, 65
9, 5520, Note_on_c, 5, 39, 65
9, 5520, Note_on_c, 5, 54, 65
9, 5760, Note_on_c, 5, 54, 0
9, 5760, Note_on_c, 5, 60, 0
9, 5760, Note_on_c, 5, 66, 0
9, 5760, Note_on_c, 5, 39, 0
9, 5760, Note_on_c, 5, 60, 65
9, 5760, Note_on_c, 5, 65, 65
9, 5760, Note_on_c, 5, 38, 65
9, 5760, Note_on_c, 5, 53, 65
9, 5880, Note_on_c, 5, 60, 0
9, 5880, Note_on_c, 5, 57, 65
9, 6000, Note_on_c, 5, 57, 0
9, 6000, Note_on_c, 5, 53, 0
9, 6000, Note_on_c, 5, 38, 0
9, 6000, Note_on_c, 5, 59, 65
9, 6000, Note_on_c, 5, 43, 65
9, 6120, Note_on_c, 5, 43, 0
9, 6120, Note_on_c, 5, 55, 65
9, 6240, Note_on_c, 5, 55, 0
9, 6240, Note_on_c, 5, 59, 0
9, 6240, Note_on_c, 5, 65, 0
9, 6240, Note_on_c, 5, 60, 65
9, 6240, Note_on_c, 5, 52, 65
9, 6420, Note_on_c, 5, 52, 0
9, 6420, Note_on_c, 5, 60, 0
9, 6420, Note_on_c, 5, 60, 65
9, 6420, Note_on_c, 5, 51, 65
9, 6720, Note_on_c, 5, 51, 0
9, 6720, Note_on_c, 5, 60, 0
9, 6720, Note_on_c, 5, 67, 65
9, 6720, Note_on_c, 5, 71, 65
9, 6720, Note_on_c, 5, 50, 65
9, 6840, Note_on_c, 5, 71, 0
9, 6840, Note_on_c, 5, 67, 0
9, 6840, Note_on_c, 5, 62, 65
9, 6840, Note_on_c, 5, 67, 65
9, 6900, Note_on_c, 5, 67, 0
9, 6900, Note_on_c, 5, 62, 0
9, 6900, Note_on_c, 5, 59, 65
9, 6900, Note_on_c, 5, 62, 65
9, 6960, Note_on_c, 5, 50, 0
9, 6960, Note_on_c, 5, 52, 65
9, 7200, Note_on_c, 5, 52, 0
9, 7200, Note_on_c, 5, 62, 0
9, 7200, Note_on_c, 5, 59, 0
9, 7200, Note_on_c, 5, 64, 65
9, 7200, Note_on_c, 5, 67, 65
9, 7200, Note_on_c, 5, 45, 65
9, 7200, Note_on_c, 5, 57, 65
9, 7320, Note_on_c, 5, 57, 0
9, 7320, Note_on_c, 5, 45, 0
9, 7380, Note_on_c, 5, 67, 0
9, 7380, Note_on_c, 5, 64, 0
9, 7380, Note_on_c, 5, 62, 65
9, 7380, Note_on_c, 5, 66, 65
9, 7440, Note_on_c, 5, 38, 65
9, 7440, Note_on_c, 5, 50, 65
9, 7560, Note_on_c, 5, 66, 0
9, 7560, Note_on_c, 5, 62, 0
9, 7560, Note_on_c, 5, 60, 65
9, 7560, Note_on_c, 5, 66, 65
9, 7680, Note_on_c, 5, 66, 0
9, 7680, Note_on_c, 5, 50, 0
9, 7680, Note_on_c, 5, 38, 0
9, 7680, Note_on_c, 5, 60, 0
9, 7680, Note_on_c, 5, 65, 65
9, 7680, Note_on_c, 5, 60, 65
9, 7680, Note_on_c, 5, 43, 65
9, 7680, Note_on_c, 5, 50, 65
9, 7800, Note_on_c, 5, 60, 0
9, 7800, Note_on_c, 5, 57, 65
9, 7920, Note_on_c, 5, 57, 0
9, 7920, Note_on_c, 5, 59, 65
9, 8040, Note_on_c, 5, 50, 0
9, 8040, Note_on_c, 5, 43, 0
9, 8040, Note_on_c, 5, 55, 65
9, 8160, Note_on_c, 5, 55, 0
9, 8160, Note_on_c, 5, 65, 0
9, 8160, Note_on_c, 5, 59, 0
9, 8160, Note_on_c, 5, 62, 65
9, 8160, Note_on_c, 5, 69, 65
9, 8160, Note_on_c, 5, 54, 65
9, 8400, Note_on_c, 5, 54, 0
9, 8400, Note_on_c, 5, 69, 0
9, 8400, Note_on_c, 5, 62, 0
9, 8400, Note_on_c, 5, 62, 65
9, 8400, Note_on_c, 5, 68, 65
9, 8400, Note_on_c, 5, 53, 65
9, 8640, Note_on_c, 5, 53, 0
9, 8640, Note_on_c, 5, 68, 0
9, 8640, Note_on_c, 5, 62, 0
9, 8640, Note_on_c, 5, 60, 65
9, 8640, Note_on_c, 5, 67, 65
9, 8640, Note_on_c, 5, 52, 65
9, 8880, Note_on_c, 5, 52, 0
9, 8880, Note_on_c, 5, 67, 0
9, 8880, Note_on_c, 5, 60, 0
9, 8880, Note_on_c, 5, 60, 65
9, 8880, Note_on_c, 5, 66, 65
9, 8880, Note_on_c, 5, 51, 65
9, 9120, Note_on_c, 5, 51, 0
9, 9120, Note_on_c, 5, 66, 0
9, 9120, Note_on_c, 5, 60, 0
9, 9120, Note_on_c, 5, 60, 65
9, 9120, Note_on_c, 5, 65, 65
9, 9120, Note_on_c, 5, 50, 65
9, 9240, Note_on_c, 5, 60, 0
9, 9240, Note_on_c, 5, 59, 65
9, 9360, Note_on_c, 5, 59, 0
9, 9360, Note_on_c, 5, 50, 0
9, 9360, Note_on_c, 5, 65, 0
9, 9360, Note_on_c, 5, 57, 65
9, 9360, Note_on_c, 5, 64, 65
9, 9360, Note_on_c, 5, 49, 65
9, 9600, Note_on_c, 5, 49, 0
9, 9600, Note_on_c, 5, 64, 0
9, 9600, Note_on_c, 5, 57, 0
9, 9600, Note_on_c, 5, 56, 65
9, 9600, Note_on_c, 5, 63, 65
9, 9600, Note_on_c, 5, 48, 65
9, 9840, Note_on_c, 5, 48, 0
9, 9840, Note_on_c, 5, 63, 0
9, 9840, Note_on_c, 5, 56, 0
9, 9840, Note_on_c, 5, 62, 65
9, 9840, Note_on_c, 5, 59, 65
9, 9840, Note_on_c, 5, 43, 65
9, 9840, Note_on_c, 5, 53, 65
9, 9960, Note_on_c, 5, 62, 0
9, 9960, Note_on_c, 5, 63, 65
9, 10080, Note_on_c, 5, 63, 0
9, 10080, Note_on_c, 5, 53, 0
9, 10080, Note_on_c, 5, 43, 0
9, 10080, Note_on_c, 5, 59, 0
9, 10080, Note_on_c, 5, 36, 65
9, 10080, Note_on_c, 5, 52, 65
9, 10200, Note_on_c, 5, 60, 65
9, 10200, Note_on_c, 5, 64, 65
9, 10320, Note_on_c, 5, 64, 0
9, 10320, Note_on_c, 5, 60, 0
9, 10440, Note_on_c, 5, 55, 65
9, 10440, Note_on_c, 5, 60, 65
9, 10560, Note_on_c, 5, 60, 0
9, 10560, Note_on_c, 5, 36, 0
9, 10560, Note_on_c, 5, 52, 0
9, 10560, Note_on_c, 5, 55, 0
9, 10560, Note_on_c, 5, 48, 65
9, 10680, Note_on_c, 5, 55, 65
9, 10680, Note_on_c, 5, 60, 65
9, 10800, Note_on_c, 5, 60, 0
9, 10800, Note_on_c, 5, 55, 0
9, 10800, Note_on_c, 5, 48, 0
9, 10800, Note_on_c, 5, 64, 65
9, 10800, Note_on_c, 5, 67, 65
9, 10800, Note_on_c, 5, 36, 65
9, 11040, Note_on_c, 5, 36, 0
9, 11040, Note_on_c, 5, 67, 0
9, 11040, Note_on_c, 5, 64, 0
9, 11040, Note_on_c, 5, 40, 65
9, 11040, Note_on_c, 5, 56, 65
9, 11160, Note_on_c, 5, 62, 65
9, 11160, Note_on_c, 5, 64, 65
9, 11280, Note_on_c, 5, 64, 0
9, 11280, Note_on_c, 5, 62, 0
9, 11400, Note_on_c, 5, 56, 0
9, 11400, Note_on_c, 5, 40, 0
9, 11400, Note_on_c, 5, 56, 65
9, 11400, Note_on_c, 5, 62, 65
9, 11520, Note_on_c, 5, 62, 0
9, 11520, Note_on_c, 5, 56, 0
9, 11520, Note_on_c, 5, 40, 65
9, 11640, Note_on_c, 5, 56, 65
9, 11640, Note_on_c, 5, 62, 65
9, 11640, Note_on_c, 5, 46, 65
9, 11760, Note_on_c, 5, 46, 0
9, 11760, Note_on_c, 5, 62, 0
9, 11760, Note_on_c, 5, 56, 0
9, 11760, Note_on_c, 5, 48, 65
9, 11880, Note_on_c, 5, 48, 0
9, 11880, Note_on_c, 5, 56, 65
9, 11880, Note_on_c, 5, 62, 65
9, 11880, Note_on_c, 5, 47, 65
9, 12000, Note_on_c, 5, 47, 0
9, 12000, Note_on_c, 5, 40, 0
9, 12000, Note_on_c, 5, 56, 0
9, 12000, Note_on_c, 5, 62, 0
9, 12000, Note_on_c, 5, 45, 65
9, 12120, Note_on_c, 5, 55, 65
9, 12120, Note_on_c, 5, 61, 65
9, 12240, Note_on_c, 5, 61, 0
9, 12240, Note_on_c, 5, 55, 0
9, 12360, Note_on_c, 5, 55, 65
9, 12360, Note_on_c, 5, 61, 65
9, 12480, Note_on_c, 5, 45, 0
9, 12480, Note_on_c, 5, 33, 65
9, 12600, Note_on_c, 5, 61, 0
9, 12600, Note_on_c, 5, 55, 0
9, 12600, Note_on_c, 5, 54, 65
9, 12600, Note_on_c, 5, 60, 65
9, 12720, Note_on_c, 5, 60, 0
9, 12720, Note_on_c, 5, 54, 0
9, 12720, Note_on_c, 5, 33, 0
9, 12720, Note_on_c, 5, 55, 65
9, 12720, Note_on_c, 5, 61, 65
9, 12720, Note_on_c, 5, 45, 65
9, 12960, Note_on_c, 5, 45, 0
9, 12960, Note_on_c, 5, 61, 0
9, 12960, Note_on_c, 5, 55, 0
9, 12960, Note_on_c, 5, 38, 65
9, 13080, Note_on_c, 5, 57, 65
9, 13080, Note_on_c, 5, 62, 65
9, 13200, Note_on_c, 5, 62, 0
9, 13200, Note_on_c, 5, 57, 0
9, 13200, Note_on_c, 5, 45, 65
9, 13320, Note_on_c, 5, 57, 65
9, 13320, Note_on_c, 5, 62, 65
9, 13440, Note_on_c, 5, 62, 0
9, 13440, Note_on_c, 5, 57, 0
9, 13440, Note_on_c, 5, 45, 0
9, 13440, Note_on_c, 5, 52, 65
9, 13560, Note_on_c, 5, 57, 65
9, 13560, Note_on_c, 5, 62, 65
9, 13680, Note_on_c, 5, 62, 0
9, 13680, Note_on_c, 5, 57, 0
9, 13680, Note_on_c, 5, 52, 0
9, 13680, Note_on_c, 5, 50, 65
9, 13800, Note_on_c, 5, 57, 65
9, 13800, Note_on_c, 5, 62, 65
9, 13920, Note_on_c, 5, 62, 0
9, 13920, Note_on_c, 5, 38, 0
9, 13920, Note_on_c, 5, 50, 0
9, 13920, Note_on_c, 5, 57, 0
9, 13920, Note_on_c, 5, 40, 65
9, 14040, Note_on_c, 5, 56, 65
9, 14040, Note_on_c, 5, 59, 65
9, 14160, Note_on_c, 5, 59, 0
9, 14160, Note_on_c, 5, 56, 0
9, 14280, Note_on_c, 5, 56, 65
9, 14280, Note_on_c, 5, 59, 65
9, 14400, Note_on_c, 5, 59, 0
9, 14400, Note_on_c, 5, 56, 0
9, 14400, Note_on_c, 5, 40, 0
9, 14400, Note_on_c, 5, 47, 65
9, 14520, Note_on_c, 5, 56, 65
9, 14520, Note_on_c, 5, 59, 65
9, 14640, Note_on_c, 5, 59, 0
9, 14640, Note_on_c, 5, 56, 0
9, 14640, Note_on_c, 5, 47, 0
9, 14640, Note_on_c, 5, 56, 65
9, 14640, Note_on_c, 5, 62, 65
9, 14640, Note_on_c, 5, 52, 65
9, 14880, Note_on_c, 5, 52, 0
9, 14880, Note_on_c, 5, 62, 0
9, 14880, Note_on_c, 5, 56, 0
9, 14880, Note_on_c, 5, 45, 65
9, 15000, Note_on_c, 5, 64, 65
9, 15000, Note_on_c, 5, 69, 65
9, 15120, Note_on_c, 5, 69, 0
9, 15120, Note_on_c, 5, 64, 0
9, 15120, Note_on_c, 5, 52, 65
9, 15240, Note_on_c, 5, 64, 65
9, 15240, Note_on_c, 5, 69, 65
9, 15360, Note_on_c, 5, 69, 0
9, 15360, Note_on_c, 5, 64, 0
9, 15360, Note_on_c, 5, 52, 0
9, 15360, Note_on_c, 5, 64, 65
9, 15360, Note_on_c, 5, 69, 65
9, 15360, Note_on_c, 5, 59, 65
9, 15480, Note_on_c, 5, 69, 0
9, 15480, Note_on_c, 5, 64, 0
9, 15600, Note_on_c, 5, 59, 0
9, 15600, Note_on_c, 5, 64, 65
9, 15600, Note_on_c, 5, 69, 65
9, 15600, Note_on_c, 5, 57, 65
9, 15720, Note_on_c, 5, 69, 0
9, 15720, Note_on_c, 5, 64, 0
9, 15840, Note_on_c, 5, 45, 0
9, 15840, Note_on_c, 5, 57, 0
9, 15840, Note_on_c, 5, 38, 65
9, 15960, Note_on_c, 5, 62, 65
9, 15960, Note_on_c, 5, 66, 65
9, 16080, Note_on_c, 5, 66, 0
9, 16080, Note_on_c, 5, 62, 0
9, 16200, Note_on_c, 5, 60, 65
9, 16200, Note_on_c, 5, 66, 65
9, 16320, Note_on_c, 5, 66, 0
9, 16320, Note_on_c, 5, 60, 0
9, 16320, Note_on_c, 5, 38, 0
9, 16320, Note_on_c, 5, 50, 65
9, 16440, Note_on_c, 5, 60, 65
9, 16440, Note_on_c, 5, 66, 65
9, 16560, Note_on_c, 5, 66, 0
9, 16560, Note_on_c, 5, 60, 0
9, 16560, Note_on_c, 5, 50, 0
9, 16560, Note_on_c, 5, 60, 65
9, 16560, Note_on_c, 5, 66, 65
9, 16560, Note_on_c, 5, 38, 65
9, 16800, Note_on_c, 5, 38, 0
9, 16800, Note_on_c, 5, 66, 0
9, 16800, Note_on_c, 5, 60, 0
9, 16800, Note_on_c, 5, 50, 65
9, 16800, Note_on_c, 5, 43, 65
9, 16920, Note_on_c, 5, 59, 65
9, 16920, Note_on_c, 5, 65, 65
9, 17040, Note_on_c, 5, 65, 0
9, 17040, Note_on_c, 5, 59, 0
9, 17040, Note_on_c, 5, 50, 0
9, 17040, Note_on_c, 5, 57, 65
9, 17160, Note_on_c, 5, 59, 65
9, 17160, Note_on_c, 5, 65, 65
9, 17280, Note_on_c, 5, 65, 0
9, 17280, Note_on_c, 5, 59, 0
9, 17280, Note_on_c, 5, 57, 0
9, 17280, Note_on_c, 5, 55, 65
9, 17400, Note_on_c, 5, 59, 65
9, 17400, Note_on_c, 5, 65, 65
9, 17520, Note_on_c, 5, 65, 0
9, 17520, Note_on_c, 5, 59, 0
9, 17520, Note_on_c, 5, 55, 0
9, 17520, Note_on_c, 5, 53, 65
9, 17640, Note_on_c, 5, 62, 65
9, 17640, Note_on_c, 5, 67, 65
9, 17760, Note_on_c, 5, 67, 0
9, 17760, Note_on_c, 5, 43, 0
9, 17760, Note_on_c, 5, 53, 0
9, 17760, Note_on_c, 5, 62, 0
9, 17760, Note_on_c, 5, 36, 65
9, 17760, Note_on_c, 5, 52, 65
9, 17880, Note_on_c, 5, 60, 65
9, 17880, Note_on_c, 5, 64, 65
9, 18000, Note_on_c, 5, 64, 0
9, 18000, Note_on_c, 5, 60, 0
9, 18120, Note_on_c, 5, 55, 65
9, 18120, Note_on_c, 5, 60, 65
9, 18240, Note_on_c, 5, 60, 0
9, 18240, Note_on_c, 5, 36, 0
9, 18240, Note_on_c, 5, 52, 0
9, 18240, Note_on_c, 5, 55, 0
9, 18240, Note_on_c, 5, 48, 65
9, 18360, Note_on_c, 5, 55, 65
9, 18360, Note_on_c, 5, 60, 65
9, 18480, Note_on_c, 5, 60, 0
9, 18480, Note_on_c, 5, 55, 0
9, 18480, Note_on_c, 5, 48, 0
9, 18480, Note_on_c, 5, 64, 65
9, 18480, Note_on_c, 5, 67, 65
9, 18480, Note_on_c, 5, 36, 65
9, 18720, Note_on_c, 5, 36, 0
9, 18720, Note_on_c, 5, 67, 0
9, 18720, Note_on_c, 5, 64, 0
9, 18720, Note_on_c, 5, 40, 65
9, 18720, Note_on_c, 5, 56, 65
9, 18840, Note_on_c, 5, 62, 65
9, 18840, Note_on_c, 5, 64, 65
9, 18960, Note_on_c, 5, 64, 0
9, 18960, Note_on_c, 5, 62, 0
9, 19080, Note_on_c, 5, 56, 0
9, 19080, Note_on_c, 5, 40, 0
9, 19080, Note_on_c, 5, 56, 65
9, 19080, Note_on_c, 5, 62, 65
9, 19200, Note_on_c, 5, 62, 0
9, 19200, Note_on_c, 5, 56, 0
9, 19200, Note_on_c, 5, 40, 65
9, 19320, Note_on_c, 5, 56, 65
9, 19320, Note_on_c, 5, 62, 65
9, 19320, Note_on_c, 5, 46, 65
9, 19440, Note_on_c, 5, 46, 0
9, 19440, Note_on_c, 5, 62, 0
9, 19440, Note_on_c, 5, 56, 0
9, 19440, Note_on_c, 5, 48, 65
9, 19560, Note_on_c, 5, 48, 0
9, 19560, Note_on_c, 5, 56, 65
9, 19560, Note_on_c, 5, 62, 65
9, 19560, Note_on_c, 5, 47, 65
9, 19680, Note_on_c, 5, 47, 0
9, 19680, Note_on_c, 5, 40, 0
9, 19680, Note_on_c, 5, 56, 0
9, 19680, Note_on_c, 5, 62, 0
9, 19680, Note_on_c, 5, 45, 65
9, 19800, Note_on_c, 5, 55, 65
9, 19800, Note_on_c, 5, 61, 65
9, 19920, Note_on_c, 5, 61, 0
9, 19920, Note_on_c, 5, 55, 0
9, 20040, Note_on_c, 5, 55, 65
9, 20040, Note_on_c, 5, 61, 65
9, 20160, Note_on_c, 5, 45, 0
9, 20160, Note_on_c, 5, 33, 65
9, 20280, Note_on_c, 5, 61, 0
9, 20280, Note_on_c, 5, 55, 0
9, 20280, Note_on_c, 5, 54, 65
9, 20280, Note_on_c, 5, 60, 65
9, 20400, Note_on_c, 5, 60, 0
9, 20400, Note_on_c, 5, 54, 0
9, 20400, Note_on_c, 5, 33, 0
9, 20400, Note_on_c, 5, 55, 65
9, 20400, Note_on_c, 5, 61, 65
9, 20400, Note_on_c, 5, 45, 65
9, 20640, Note_on_c, 5, 45, 0
9, 20640, Note_on_c, 5, 61, 0
9, 20640, Note_on_c, 5, 55, 0
9, 20640, Note_on_c, 5, 38, 65
9, 20760, Note_on_c, 5, 57, 65
9, 20760, Note_on_c, 5, 62, 65
9, 20880, Note_on_c, 5, 62, 0
9, 20880, Note_on_c, 5, 57, 0
9, 20880, Note_on_c, 5, 45, 65
9, 21000, Note_on_c, 5, 57, 65
9, 21000, Note_on_c, 5, 62, 65
9, 21120, Note_on_c, 5, 62, 0
9, 21120, Note_on_c, 5, 57, 0
9, 21120, Note_on_c, 5, 45, 0
9, 21120, Note_on_c, 5, 52, 65
9, 21240, Note_on_c, 5, 57, 65
9, 21240, Note_on_c, 5, 62, 65
9, 21360, Note_on_c, 5, 62, 0
9, 21360, Note_on_c, 5, 57, 0
9, 21360, Note_on_c, 5, 52, 0
9, 21360, Note_on_c, 5, 50, 65
9, 21480, Note_on_c, 5, 57, 65
9, 21480, Note_on_c, 5, 62, 65
9, 21600, Note_on_c, 5, 62, 0
9, 21600, Note_on_c, 5, 38, 0
9, 21600, Note_on_c, 5, 50, 0
9, 21600, Note_on_c, 5, 57, 0
9, 21600, Note_on_c, 5, 62, 65
9, 21600, Note_on_c, 5, 65, 65
9, 21600, Note_on_c, 5, 41, 65
9, 21600, Note_on_c, 5, 57, 65
9, 21720, Note_on_c, 5, 65, 0
9, 21720, Note_on_c, 5, 62, 0
9, 21720, Note_on_c, 5, 62, 65
9, 21720, Note_on_c, 5, 65, 65
9, 21960, Note_on_c, 5, 65, 0
9, 21960, Note_on_c, 5, 62, 0
9, 21960, Note_on_c, 5, 62, 65
9, 21960, Note_on_c, 5, 65, 65
9, 22080, Note_on_c, 5, 65, 0
9, 22080, Note_on_c, 5, 57, 0
9, 22080, Note_on_c, 5, 41, 0
9, 22080, Note_on_c, 5, 62, 0
9, 22080, Note_on_c, 5, 62, 65
9, 22080, Note_on_c, 5, 65, 65
9, 22080, Note_on_c, 5, 41, 65
9, 22080, Note_on_c, 5, 56, 65
9, 22200, Note_on_c, 5, 65, 0
9, 22200, Note_on_c, 5, 62, 0
9, 22200, Note_on_c, 5, 62, 65
9, 22200, Note_on_c, 5, 65, 65
9, 22440, Note_on_c, 5, 65, 0
9, 22440, Note_on_c, 5, 62, 0
9, 22440, Note_on_c, 5, 62, 65
9, 22440, Note_on_c, 5, 65, 65
9, 22560, Note_on_c, 5, 65, 0
9, 22560, Note_on_c, 5, 56, 0
9, 22560, Note_on_c, 5, 41, 0
9, 22560, Note_on_c, 5, 62, 0
9, 22560, Note_on_c, 5, 60, 65
9, 22560, Note_on_c, 5, 64, 65
9, 22560, Note_on_c, 5, 40, 65
9, 22560, Note_on_c, 5, 55, 65
9, 22680, Note_on_c, 5, 64, 0
9, 22680, Note_on_c, 5, 60, 0
9, 22680, Note_on_c, 5, 60, 65
9, 22680, Note_on_c, 5, 64, 65
9, 22800, Note_on_c, 5, 64, 0
9, 22800, Note_on_c, 5, 55, 0
9, 22800, Note_on_c, 5, 40, 0
9, 22800, Note_on_c, 5, 60, 0
9, 22800, Note_on_c, 5, 55, 65
9, 22800, Note_on_c, 5, 62, 65
9, 22800, Note_on_c, 5, 46, 65
9, 23040, Note_on_c, 5, 46, 0
9, 23040, Note_on_c, 5, 62, 0
9, 23040, Note_on_c, 5, 55, 0
9, 23040, Note_on_c, 5, 61, 65
9, 23040, Note_on_c, 5, 67, 65
9, 23040, Note_on_c, 5, 45, 65
9, 23160, Note_on_c, 5, 67, 0
9, 23160, Note_on_c, 5, 61, 0
9, 23160, Note_on_c, 5, 61, 65
9, 23160, Note_on_c, 5, 67, 65
9, 23280, Note_on_c, 5, 45, 0
9, 23280, Note_on_c, 5, 57, 65
9, 23400, Note_on_c, 5, 67, 0
9, 23400, Note_on_c, 5, 61, 0
9, 23400, Note_on_c, 5, 61, 65
9, 23400, Note_on_c, 5, 67, 65
9, 23520, Note_on_c, 5, 67, 0
9, 23520, Note_on_c, 5, 61, 0
9, 23520, Note_on_c, 5, 57, 0
9, 23520, Note_on_c, 5, 60, 65
9, 23520, Note_on_c, 5, 65, 65
9, 23520, Note_on_c, 5, 68, 65
9, 23520, Note_on_c, 5, 38, 65
9, 23520, Note_on_c, 5, 50, 65
9, 23640, Note_on_c, 5, 68, 0
9, 23640, Note_on_c, 5, 60, 0
9, 23640, Note_on_c, 5, 65, 0
9, 23640, Note_on_c, 5, 60, 65
9, 23640, Note_on_c, 5, 65, 65
9, 23640, Note_on_c, 5, 68, 65
9, 23760, Note_on_c, 5, 68, 0
9, 23760, Note_on_c, 5, 60, 0
9, 23760, Note_on_c, 5, 50, 0
9, 23760, Note_on_c, 5, 38, 0
9, 23760, Note_on_c, 5, 65, 0
9, 23760, Note_on_c, 5, 60, 65
9, 23760, Note_on_c, 5, 65, 65
9, 23760, Note_on_c, 5, 50, 65
9, 23880, Note_on_c, 5, 65, 0
9, 23880, Note_on_c, 5, 60, 0
9, 23880, Note_on_c, 5, 60, 65
9, 23880, Note_on_c, 5, 65, 65
9, 23880, Note_on_c, 5, 68, 65
9, 24000, Note_on_c, 5, 68, 0
9, 24000, Note_on_c, 5, 50, 0
9, 24000, Note_on_c, 5, 60, 0
9, 24000, Note_on_c, 5, 65, 0
9, 24000, Note_on_c, 5, 71, 65
9, 24000, Note_on_c, 5, 67, 65
9, 24000, Note_on_c, 5, 43, 65
9, 24120, Note_on_c, 5, 67, 0
9, 24120, Note_on_c, 5, 66, 65
9, 24240, Note_on_c, 5, 66, 0
9, 24240, Note_on_c, 5, 43, 0
9, 24240, Note_on_c, 5, 71, 0
9, 24240, Note_on_c, 5, 65, 65
9, 24240, Note_on_c, 5, 69, 65
9, 24240, Note_on_c, 5, 55, 65
9, 24360, Note_on_c, 5, 69, 0
9, 24360, Note_on_c, 5, 71, 65
9, 24480, Note_on_c, 5, 71, 0
9, 24480, Note_on_c, 5, 55, 0
9, 24480, Note_on_c, 5, 65, 0
9, 24480, Note_on_c, 5, 64, 65
9, 24480, Note_on_c, 5, 67, 65
9, 24480, Note_on_c, 5, 36, 65
9, 24480, Note_on_c, 5, 48, 65
9, 24720, Note_on_c, 5, 48, 0
9, 24720, Note_on_c, 5, 64, 0
9, 24720, Note_on_c, 5, 67, 0
9, 24720, Note_on_c, 5, 36, 0
9, 24720, Note_on_c, 5, 60, 65
9, 24720, Note_on_c, 5, 66, 65
9, 24720, Note_on_c, 5, 39, 65
9, 24720, Note_on_c, 5, 51, 65
9, 24960, Note_on_c, 5, 51, 0
9, 24960, Note_on_c, 5, 60, 0
9, 24960, Note_on_c, 5, 66, 0
9, 24960, Note_on_c, 5, 39, 0
9, 24960, Note_on_c, 5, 60, 65
9, 24960, Note_on_c, 5, 65, 65
9, 24960, Note_on_c, 5, 38, 65
9, 24960, Note_on_c, 5, 50, 65
9, 25200, Note_on_c, 5, 50, 0
9, 25200, Note_on_c, 5, 60, 0
9, 25200, Note_on_c, 5, 65, 0
9, 25200, Note_on_c, 5, 38, 0
9, 25200, Note_on_c, 5, 59, 65
9, 25200, Note_on_c, 5, 63, 65
9, 25200, Note_on_c, 5, 43, 65
9, 25200, Note_on_c, 5, 53, 65
9, 25440, Note_on_c, 5, 53, 0
9, 25440, Note_on_c, 5, 59, 0
9, 25440, Note_on_c, 5, 63, 0
9, 25440, Note_on_c, 5, 43, 0
9, 25440, Note_on_c, 5, 36, 65
9, 25440, Note_on_c, 5, 52, 65
9, 25560, Note_on_c, 5, 60, 65
9, 25560, Note_on_c, 5, 64, 65
9, 25680, Note_on_c, 5, 64, 0
9, 25680, Note_on_c, 5, 60, 0
9, 25800, Note_on_c, 5, 55, 65
9, 25800, Note_on_c, 5, 60, 65
9, 25920, Note_on_c, 5, 60, 0
9, 25920, Note_on_c, 5, 36, 0
9, 25920, Note_on_c, 5, 52, 0
9, 25920, Note_on_c, 5, 55, 0
9, 25920, Note_on_c, 5, 48, 65
9, 26040, Note_on_c, 5, 55, 65
9, 26040, Note_on_c, 5, 60, 65
9, 26160, Note_on_c, 5, 60, 0
9, 26160, Note_on_c, 5, 55, 0
9, 26160, Note_on_c, 5, 48, 0
9, 26160, Note_on_c, 5, 64, 65
9, 26160, Note_on_c, 5, 67, 65
9, 26160, Note_on_c, 5, 36, 65
9, 26400, Note_on_c, 5, 36, 0
9, 26400, Note_on_c, 5, 67, 0
9, 26400, Note_on_c, 5, 64, 0
9, 26400, Note_on_c, 5, 40, 65
9, 26400, Note_on_c, 5, 56, 65
9, 26520, Note_on_c, 5, 62, 65
9, 26520, Note_on_c, 5, 64, 65
9, 26640, Note_on_c, 5, 64, 0
9, 26640, Note_on_c, 5, 62, 0
9, 26760, Note_on_c, 5, 56, 0
9, 26760, Note_on_c, 5, 40, 0
9, 26760, Note_on_c, 5, 56, 65
9, 26760, Note_on_c, 5, 62, 65
9, 26880, Note_on_c, 5, 62, 0
9, 26880, Note_on_c, 5, 56, 0
9, 26880, Note_on_c, 5, 40, 65
9, 27000, Note_on_c, 5, 56, 65
9, 27000, Note_on_c, 5, 62, 65
9, 27000, Note_on_c, 5, 46, 65
9, 27120, Note_on_c, 5, 46, 0
9, 27120, Note_on_c, 5, 62, 0
9, 27120, Note_on_c, 5, 56, 0
9, 27120, Note_on_c, 5, 48, 65
9, 27240, Note_on_c, 5, 48, 0
9, 27240, Note_on_c, 5, 56, 65
9, 27240, Note_on_c, 5, 62, 65
9, 27240, Note_on_c, 5, 47, 65
9, 27360, Note_on_c, 5, 47, 0
9, 27360, Note_on_c, 5, 40, 0
9, 27360, Note_on_c, 5, 56, 0
9, 27360, Note_on_c, 5, 62, 0
9, 27360, Note_on_c, 5, 45, 65
9, 27480, Note_on_c, 5, 55, 65
9, 27480, Note_on_c, 5, 61, 65
9, 27600, Note_on_c, 5, 61, 0
9, 27600, Note_on_c, 5, 55, 0
9, 27720, Note_on_c, 5, 55, 65
9, 27720, Note_on_c, 5, 61, 65
9, 27840, Note_on_c, 5, 45, 0
9, 27840, Note_on_c, 5, 33, 65
9, 27960, Note_on_c, 5, 61, 0
9, 27960, Note_on_c, 5, 55, 0
9, 27960, Note_on_c, 5, 54, 65
9, 27960, Note_on_c, 5, 60, 65
9, 28080, Note_on_c, 5, 60, 0
9, 28080, Note_on_c, 5, 54, 0
9, 28080, Note_on_c, 5, 33, 0
9, 28080, Note_on_c, 5, 55, 65
9, 28080, Note_on_c, 5, 61, 65
9, 28080, Note_on_c, 5, 45, 65
9, 28320, Note_on_c, 5, 45, 0
9, 28320, Note_on_c, 5, 61, 0
9, 28320, Note_on_c, 5, 55, 0
9, 28320, Note_on_c, 5, 38, 65
9, 28440, Note_on_c, 5, 57, 65
9, 28440, Note_on_c, 5, 62, 65
9, 28560, Note_on_c, 5, 62, 0
9, 28560, Note_on_c, 5, 57, 0
9, 28560, Note_on_c, 5, 45, 65
9, 28680, Note_on_c, 5, 57, 65
9, 28680, Note_on_c, 5, 62, 65
9, 28800, Note_on_c, 5, 62, 0
9, 28800, Note_on_c, 5, 57, 0
9, 28800, Note_on_c, 5, 45, 0
9, 28800, Note_on_c, 5, 52, 65
9, 28920, Note_on_c, 5, 57, 65
9, 28920, Note_on_c, 5, 62, 65
9, 29040, Note_on_c, 5, 62, 0
9, 29040, Note_on_c, 5, 57, 0
9, 29040, Note_on_c, 5, 52, 0
9, 29040, Note_on_c, 5, 50, 65
9, 29160, Note_on_c, 5, 57, 65
9, 29160, Note_on_c, 5, 62, 65
9, 29280, Note_on_c, 5, 62, 0
9, 29280, Note_on_c, 5, 38, 0
9, 29280, Note_on_c, 5, 50, 0
9, 29280, Note_on_c, 5, 57, 0
9, 29280, Note_on_c, 5, 40, 65
9, 29400, Note_on_c, 5, 56, 65
9, 29400, Note_on_c, 5, 59, 65
9, 29520, Note_on_c, 5, 59, 0
9, 29520, Note_on_c, 5, 56, 0
9, 29640, Note_on_c, 5, 56, 65
9, 29640, Note_on_c, 5, 59, 65
9, 29760, Note_on_c, 5, 59, 0
9, 29760, Note_on_c, 5, 56, 0
9, 29760, Note_on_c, 5, 40, 0
9, 29760, Note_on_c, 5, 47, 65
9, 29880, Note_on_c, 5, 56, 65
9, 29880, Note_on_c, 5, 59, 65
9, 30000, Note_on_c, 5, 59, 0
9, 30000, Note_on_c, 5, 56, 0
9, 30000, Note_on_c, 5, 47, 0
9, 30000, Note_on_c, 5, 56, 65
9, 30000, Note_on_c, 5, 62, 65
9, 30000, Note_on_c, 5, 52, 65
9, 30240, Note_on_c, 5, 52, 0
9, 30240, Note_on_c, 5, 62, 0
9, 30240, Note_on_c, 5, 56, 0
9, 30240, Note_on_c, 5, 45, 65
9, 30360, Note_on_c, 5, 64, 65
9, 30360, Note_on_c, 5, 69, 65
9, 30480, Note_on_c, 5, 69, 0
9, 30480, Note_on_c, 5, 64, 0
9, 30480, Note_on_c, 5, 52, 65
9, 30600, Note_on_c, 5, 64, 65
9, 30600, Note_on_c, 5, 69, 65
9, 30720, Note_on_c, 5, 69, 0
9, 30720, Note_on_c, 5, 64, 0
9, 30720, Note_on_c, 5, 52, 0
9, 30720, Note_on_c, 5, 64, 65
9, 30720, Note_on_c, 5, 69, 65
9, 30720, Note_on_c, 5, 59, 65
9, 30840, Note_on_c, 5, 69, 0
9, 30840, Note_on_c, 5, 64, 0
9, 30960, Note_on_c, 5, 59, 0
9, 30960, Note_on_c, 5, 64, 65
9, 30960, Note_on_c, 5, 69, 65
9, 30960, Note_on_c, 5, 57, 65
9, 31080, Note_on_c, 5, 69, 0
9, 31080, Note_on_c, 5, 64, 0
9, 31200, Note_on_c, 5, 45, 0
9, 31200, Note_on_c, 5, 57, 0
9, 31200, Note_on_c, 5, 38, 65
9, 31320, Note_on_c, 5, 62, 65
9, 31320, Note_on_c, 5, 66, 65
9, 31440, Note_on_c, 5, 66, 0
9, 31440, Note_on_c, 5, 62, 0
9, 31560, Note_on_c, 5, 60, 65
9, 31560, Note_on_c, 5, 66, 65
9, 31680, Note_on_c, 5, 66, 0
9, 31680, Note_on_c, 5, 60, 0
9, 31680, Note_on_c, 5, 38, 0
9, 31680, Note_on_c, 5, 50, 65
9, 31800, Note_on_c, 5, 60, 65
9, 31800, Note_on_c, 5, 66, 65
9, 31920, Note_on_c, 5, 66, 0
9, 31920, Note_on_c, 5, 60, 0
9, 31920, Note_on_c, 5, 50, 0
9, 31920, Note_on_c, 5, 60, 65
9, 31920, Note_on_c, 5, 66, 65
9, 31920, Note_on_c, 5, 38, 65
9, 32160, Note_on_c, 5, 38, 0
9, 32160, Note_on_c, 5, 66, 0
9, 32160, Note_on_c, 5, 60, 0
9, 32160, Note_on_c, 5, 50, 65
9, 32160, Note_on_c, 5, 43, 65
9, 32280, Note_on_c, 5, 59, 65
9, 32280, Note_on_c, 5, 65, 65
9, 32400, Note_on_c, 5, 65, 0
9, 32400, Note_on_c, 5, 59, 0
9, 32400, Note_on_c, 5, 50, 0
9, 32400, Note_on_c, 5, 57, 65
9, 32520, Note_on_c, 5, 59, 65
9, 32520, Note_on_c, 5, 65, 65
9, 32640, Note_on_c, 5, 65, 0
9, 32640, Note_on_c, 5, 59, 0
9, 32640, Note_on_c, 5, 57, 0
9, 32640, Note_on_c, 5, 55, 65
9, 32760, Note_on_c, 5, 59, 65
9, 32760, Note_on_c, 5, 65, 65
9, 32880, Note_on_c, 5, 65, 0
9, 32880, Note_on_c, 5, 59, 0
9, 32880, Note_on_c, 5, 55, 0
9, 32880, Note_on_c, 5, 53, 65
9, 33000, Note_on_c, 5, 62, 65
9, 33000, Note_on_c, 5, 67, 65
9, 33120, Note_on_c, 5, 67, 0
9, 33120, Note_on_c, 5, 43, 0
9, 33120, Note_on_c, 5, 53, 0
9, 33120, Note_on_c, 5, 62, 0
9, 33120, Note_on_c, 5, 36, 65
9, 33120, Note_on_c, 5, 52, 65
9, 33240, Note_on_c, 5, 60, 65
9, 33240, Note_on_c, 5, 64, 65
9, 33360, Note_on_c, 5, 64, 0
9, 33360, Note_on_c, 5, 60, 0
9, 33480, Note_on_c, 5, 55, 65
9, 33480, Note_on_c, 5, 60, 65
9, 33600, Note_on_c, 5, 60, 0
9, 33600, Note_on_c, 5, 36, 0
9, 33600, Note_on_c, 5, 52, 0
9, 33600, Note_on_c, 5, 55, 0
9, 33600, Note_on_c, 5, 48, 65
9, 33720, Note_on_c, 5, 55, 65
9, 33720, Note_on_c, 5, 60, 65
9, 33840, Note_on_c, 5, 60, 0
9, 33840, Note_on_c, 5, 55, 0
9, 33840, Note_on_c, 5, 48, 0
9, 33840, Note_on_c, 5, 64, 65
9, 33840, Note_on_c, 5, 67, 65
9, 33840, Note_on_c, 5, 36, 65
9, 34080, Note_on_c, 5, 36, 0
9, 34080, Note_on_c, 5, 67, 0
9, 34080, Note_on_c, 5, 64, 0
9, 34080, Note_on_c, 5, 40, 65
9, 34080, Note_on_c, 5, 56, 65
9, 34200, Note_on_c, 5, 62, 65
9, 34200, Note_on_c, 5, 64, 65
9, 34320, Note_on_c, 5, 64, 0
9, 34320, Note_on_c, 5, 62, 0
9, 34440, Note_on_c, 5, 56, 0
9, 34440, Note_on_c, 5, 40, 0
9, 34440, Note_on_c, 5, 56, 65
9, 34440, Note_on_c, 5, 62, 65
9, 34560, Note_on_c, 5, 62, 0
9, 34560, Note_on_c, 5, 56, 0
9, 34560, Note_on_c, 5, 40, 65
9, 34680, Note_on_c, 5, 56, 65
9, 34680, Note_on_c, 5, 62, 65
9, 34680, Note_on_c, 5, 46, 65
9, 34800, Note_on_c, 5, 46, 0
9, 34800, Note_on_c, 5, 62, 0
9, 34800, Note_on_c, 5, 56, 0
9, 34800, Note_on_c, 5, 48, 65
9, 34920, Note_on_c, 5, 48, 0
9, 34920, Note_on_c, 5, 56, 65
9, 34920, Note_on_c, 5, 62, 65
9, 34920, Note_on_c, 5, 47, 65
9, 35040, Note_on_c, 5, 47, 0
9, 35040, Note_on_c, 5, 40, 0
9, 35040, Note_on_c, 5, 56, 0
9, 35040, Note_on_c, 5, 62, 0
9, 35040, Note_on_c, 5, 45, 65
9, 35160, Note_on_c, 5, 55, 65
9, 35160, Note_on_c, 5, 61, 65
9, 35280, Note_on_c, 5, 61, 0
9, 35280, Note_on_c, 5, 55, 0
9, 35400, Note_on_c, 5, 55, 65
9, 35400, Note_on_c, 5, 61, 65
9, 35520, Note_on_c, 5, 45, 0
9, 35520, Note_on_c, 5, 33, 65
9, 35640, Note_on_c, 5, 61, 0
9, 35640, Note_on_c, 5, 55, 0
9, 35640, Note_on_c, 5, 54, 65
9, 35640, Note_on_c, 5, 60, 65
9, 35760, Note_on_c, 5, 60, 0
9, 35760, Note_on_c, 5, 54, 0
9, 35760, Note_on_c, 5, 33, 0
9, 35760, Note_on_c, 5, 55, 65
9, 35760, Note_on_c, 5, 61, 65
9, 35760, Note_on_c, 5, 45, 65
9, 36000, Note_on_c, 5, 45, 0
9, 36000, Note_on_c, 5, 61, 0
9, 36000, Note_on_c, 5, 55, 0
9, 36000, Note_on_c, 5, 38, 65
9, 36120, Note_on_c, 5, 57, 65
9, 36120, Note_on_c, 5, 62, 65
9, 36240, Note_on_c, 5, 62, 0
9, 36240, Note_on_c, 5, 57, 0
9, 36240, Note_on_c, 5, 45, 65
9, 36360, Note_on_c, 5, 57, 65
9, 36360, Note_on_c, 5, 62, 65
9, 36480, Note_on_c, 5, 62, 0
9, 36480, Note_on_c, 5, 57, 0
9, 36480, Note_on_c, 5, 45, 0
9, 36480, Note_on_c, 5, 52, 65
9, 36600, Note_on_c, 5, 57, 65
9, 36600, Note_on_c, 5, 62, 65
9, 36720, Note_on_c, 5, 62, 0
9, 36720, Note_on_c, 5, 57, 0
9, 36720, Note_on_c, 5, 52, 0
9, 36720, Note_on_c, 5, 50, 65
9, 36840, Note_on_c, 5, 57, 65
9, 36840, Note_on_c, 5, 62, 65
9, 36960, Note_on_c, 5, 62, 0
9, 36960, Note_on_c, 5, 38, 0
9, 36960, Note_on_c, 5, 50, 0
9, 36960, Note_on_c, 5, 57, 0
9, 36960, Note_on_c, 5, 62, 65
9, 36960, Note_on_c, 5, 65, 65
9, 36960, Note_on_c, 5, 41, 65
9, 36960, Note_on_c, 5, 57, 65
9, 37080, Note_on_c, 5, 65, 0
9, 37080, Note_on_c, 5, 62, 0
9, 37080, Note_on_c, 5, 62, 65
9, 37080, Note_on_c, 5, 65, 65
9, 37320, Note_on_c, 5, 65, 0
9, 37320, Note_on_c, 5, 62, 0
9, 37320, Note_on_c, 5, 62, 65
9, 37320, Note_on_c, 5, 65, 65
9, 37440, Note_on_c, 5, 65, 0
9, 37440, Note_on_c, 5, 57, 0
9, 37440, Note_on_c, 5, 41, 0
9, 37440, Note_on_c, 5, 62, 0
9, 37440, Note_on_c, 5, 62, 65
9, 37440, Note_on_c, 5, 65, 65
9, 37440, Note_on_c, 5, 41, 65
9, 37440, Note_on_c, 5, 56, 65
9, 37560, Note_on_c, 5, 65, 0
9, 37560, Note_on_c, 5, 62, 0
9, 37560, Note_on_c, 5, 62, 65
9, 37560, Note_on_c, 5, 65, 65
9, 37800, Note_on_c, 5, 65, 0
9, 37800, Note_on_c, 5, 62, 0
9, 37800, Note_on_c, 5, 62, 65
9, 37800, Note_on_c, 5, 65, 65
9, 37920, Note_on_c, 5, 65, 0
9, 37920, Note_on_c, 5, 56, 0
9, 37920, Note_on_c, 5, 41, 0
9, 37920, Note_on_c, 5, 62, 0
9, 37920, Note_on_c, 5, 60, 65
9, 37920, Note_on_c, 5, 64, 65
9, 37920, Note_on_c, 5, 40, 65
9, 37920, Note_on_c, 5, 55, 65
9, 38040, Note_on_c, 5, 64, 0
9, 38040, Note_on_c, 5, 60, 0
9, 38040, Note_on_c, 5, 60, 65
9, 38040, Note_on_c, 5, 64, 65
9, 38160, Note_on_c, 5, 64, 0
9, 38160, Note_on_c, 5, 55, 0
9, 38160, Note_on_c, 5, 40, 0
9, 38160, Note_on_c, 5, 60, 0
9, 38160, Note_on_c, 5, 55, 65
9, 38160, Note_on_c, 5, 62, 65
9, 38160, Note_on_c, 5, 46, 65
9, 38400, Note_on_c, 5, 46, 0
9, 38400, Note_on_c, 5, 62, 0
9, 38400, Note_on_c, 5, 55, 0
9, 38400, Note_on_c, 5, 61, 65
9, 38400, Note_on_c, 5, 67, 65
9, 38400, Note_on_c, 5, 45, 65
9, 38520, Note_on_c, 5, 67, 0
9, 38520, Note_on_c, 5, 61, 0
9, 38520, Note_on_c, 5, 61, 65
9, 38520, Note_on_c, 5, 67, 65
9, 38640, Note_on_c, 5, 45, 0
9, 38640, Note_on_c, 5, 57, 65
9, 38760, Note_on_c, 5, 67, 0
9, 38760, Note_on_c, 5, 61, 0
9, 38760, Note_on_c, 5, 61, 65
9, 38760, Note_on_c, 5, 67, 65
9, 38880, Note_on_c, 5, 67, 0
9, 38880, Note_on_c, 5, 61, 0
9, 38880, Note_on_c, 5, 57, 0
9, 38880, Note_on_c, 5, 60, 65
9, 38880, Note_on_c, 5, 65, 65
9, 38880, Note_on_c, 5, 68, 65
9, 38880, Note_on_c, 5, 38, 65
9, 38880, Note_on_c, 5, 50, 65
9, 39000, Note_on_c, 5, 68, 0
9, 39000, Note_on_c, 5, 60, 0
9, 39000, Note_on_c, 5, 65, 0
9, 39000, Note_on_c, 5, 60, 65
9, 39000, Note_on_c, 5, 65, 65
9, 39000, Note_on_c, 5, 68, 65
9, 39120, Note_on_c, 5, 68, 0
9, 39120, Note_on_c, 5, 60, 0
9, 39120, Note_on_c, 5, 50, 0
9, 39120, Note_on_c, 5, 38, 0
9, 39120, Note_on_c, 5, 65, 0
9, 39120, Note_on_c, 5, 60, 65
9, 39120, Note_on_c, 5, 65, 65
9, 39120, Note_on_c, 5, 50, 65
9, 39240, Note_on_c, 5, 65, 0
9, 39240, Note_on_c, 5, 60, 0
9, 39240, Note_on_c, 5, 60, 65
9, 39240, Note_on_c, 5, 65, 65
9, 39240, Note_on_c, 5, 68, 65
9, 39360, Note_on_c, 5, 68, 0
9, 39360, Note_on_c, 5, 50, 0
9, 39360, Note_on_c, 5, 60, 0
9, 39360, Note_on_c, 5, 65, 0
9, 39360, Note_on_c, 5, 71, 65
9, 39360, Note_on_c, 5, 67, 65
9, 39360, Note_on_c, 5, 43, 65
9, 39480, Note_on_c, 5, 67, 0
9, 39480, Note_on_c, 5, 66, 65
9, 39600, Note_on_c, 5, 66, 0
9, 39600, Note_on_c, 5, 43, 0
9, 39600, Note_on_c, 5, 71, 0
9, 39600, Note_on_c, 5, 65, 65
9, 39600, Note_on_c, 5, 69, 65
9, 39600, Note_on_c, 5, 55, 65
9, 39720, Note_on_c, 5, 69, 0
9, 39720, Note_on_c, 5, 71, 65
9, 39840, Note_on_c, 5, 71, 0
9, 39840, Note_on_c, 5, 55, 0
9, 39840, Note_on_c, 5, 65, 0
9, 39840, Note_on_c, 5, 64, 65
9, 39840, Note_on_c, 5, 67, 65
9, 39840, Note_on_c, 5, 36, 65
9, 39840, Note_on_c, 5, 48, 65
9, 39840, Note_on_c, 5, 36, 65
9, 39900, Note_on_c, 5, 36, 0
9, 39900, Note_on_c, 5, 43, 65
9, 39960, Note_on_c, 5, 43, 0
9, 39960, Note_on_c, 5, 48, 65
9, 40020, Note_on_c, 5, 48, 0
9, 40020, Note_on_c, 5, 52, 65
9, 40080, Note_on_c, 5, 52, 0
9, 40080, Note_on_c, 5, 48, 0
9, 40080, Note_on_c, 5, 64, 0
9, 40080, Note_on_c, 5, 67, 0
9, 40080, Note_on_c, 5, 36, 0
9, 40080, Note_on_c, 5, 72, 65
9, 40080, Note_on_c, 5, 77, 65
9, 40080, Note_on_c, 5, 80, 65
9, 40080, Note_on_c, 5, 84, 65
9, 40080, Note_on_c, 5, 53, 65
9, 40140, Note_on_c, 5, 53, 0
9, 40140, Note_on_c, 5, 56, 65
9, 40200, Note_on_c, 5, 56, 0
9, 40200, Note_on_c, 5, 60, 65
9, 40260, Note_on_c, 5, 60, 0
9, 40260, Note_on_c, 5, 62, 65
9, 40320, Note_on_c, 5, 62, 0
9, 40320, Note_on_c, 5, 84, 0
9, 40320, Note_on_c, 5, 72, 0
9, 40320, Note_on_c, 5, 77, 0
9, 40320, Note_on_c, 5, 80, 0
9, 40320, Note_on_c, 5, 72, 65
9, 40320, Note_on_c, 5, 76, 65
9, 40320, Note_on_c, 5, 79, 65
9, 40320, Note_on_c, 5, 84, 65
9, 40560, Note_on_c, 5, 84, 0
9, 40560, Note_on_c, 5, 72, 0
9, 40560, Note_on_c, 5, 76, 0
9, 40560, Note_on_c, 5, 79, 0
9, 40560, Note_on_c, 5, 84, 65
9, 40560, Note_on_c, 5, 88, 65
9, 40560, Note_on_c, 5, 91, 65
9, 40560, Note_on_c, 5, 96, 65
9, 40680, Note_on_c, 5, 96, 0
9, 40680, Note_on_c, 5, 84, 0
9, 40680, Note_on_c, 5, 88, 0
9, 40680, Note_on_c, 5, 91, 0
9, 40680, End_track
10, 0, Start_track
10, 0, MIDI_port, 0
10, 0, Title_t, "pizz bass"
10, 0, Control_c, 10, 0, 0
10, 0, Control_c, 10, 32, 1
10, 0, Program_c, 10, 45
10, 0, Control_c, 10, 7, 120
10, 0, Control_c, 10, 10, 65
10, 10080, Note_on_c, 10, 36, 54
10, 10140, Note_on_c, 10, 36, 0
10, 10260, Note_on_c, 10, 36, 54
10, 10320, Note_on_c, 10, 36, 0
10, 10320, Note_on_c, 10, 36, 54
10, 10380, Note_on_c, 10, 36, 0
10, 10500, Note_on_c, 10, 36, 54
10, 10560, Note_on_c, 10, 36, 0
10, 10560, Note_on_c, 10, 36, 54
10, 10620, Note_on_c, 10, 36, 0
10, 10740, Note_on_c, 10, 36, 54
10, 10800, Note_on_c, 10, 36, 0
10, 10800, Note_on_c, 10, 24, 54
10, 10860, Note_on_c, 10, 24, 0
10, 10980, Note_on_c, 10, 24, 54
10, 11040, Note_on_c, 10, 24, 0
10, 11040, Note_on_c, 10, 28, 54
10, 11100, Note_on_c, 10, 28, 0
10, 11220, Note_on_c, 10, 28, 54
10, 11280, Note_on_c, 10, 28, 0
10, 11280, Note_on_c, 10, 28, 54
10, 11340, Note_on_c, 10, 28, 0
10, 11460, Note_on_c, 10, 31, 54
10, 11520, Note_on_c, 10, 31, 0
10, 11520, Note_on_c, 10, 28, 54
10, 11580, Note_on_c, 10, 28, 0
10, 11700, Note_on_c, 10, 28, 54
10, 11760, Note_on_c, 10, 28, 0
10, 11760, Note_on_c, 10, 28, 54
10, 11820, Note_on_c, 10, 28, 0
10, 11940, Note_on_c, 10, 28, 54
10, 12000, Note_on_c, 10, 28, 0
10, 12000, Note_on_c, 10, 33, 54
10, 12060, Note_on_c, 10, 33, 0
10, 12180, Note_on_c, 10, 33, 54
10, 12240, Note_on_c, 10, 33, 0
10, 12240, Note_on_c, 10, 33, 54
10, 12300, Note_on_c, 10, 33, 0
10, 12420, Note_on_c, 10, 33, 54
10, 12480, Note_on_c, 10, 33, 0
10, 12480, Note_on_c, 10, 33, 54
10, 12540, Note_on_c, 10, 33, 0
10, 12660, Note_on_c, 10, 33, 54
10, 12720, Note_on_c, 10, 33, 0
10, 12720, Note_on_c, 10, 33, 54
10, 12780, Note_on_c, 10, 33, 0
10, 12900, Note_on_c, 10, 33, 54
10, 12960, Note_on_c, 10, 33, 0
10, 12960, Note_on_c, 10, 26, 54
10, 13020, Note_on_c, 10, 26, 0
10, 13140, Note_on_c, 10, 26, 54
10, 13200, Note_on_c, 10, 26, 0
10, 13200, Note_on_c, 10, 26, 54
10, 13260, Note_on_c, 10, 26, 0
10, 13380, Note_on_c, 10, 26, 54
10, 13440, Note_on_c, 10, 26, 0
10, 13440, Note_on_c, 10, 26, 54
10, 13500, Note_on_c, 10, 26, 0
10, 13620, Note_on_c, 10, 26, 54
10, 13680, Note_on_c, 10, 26, 0
10, 13680, Note_on_c, 10, 26, 54
10, 13740, Note_on_c, 10, 26, 0
10, 13860, Note_on_c, 10, 26, 54
10, 13920, Note_on_c, 10, 26, 0
10, 13920, Note_on_c, 10, 28, 54
10, 13980, Note_on_c, 10, 28, 0
10, 14100, Note_on_c, 10, 28, 54
10, 14160, Note_on_c, 10, 28, 0
10, 14160, Note_on_c, 10, 28, 54
10, 14220, Note_on_c, 10, 28, 0
10, 14340, Note_on_c, 10, 28, 54
10, 14400, Note_on_c, 10, 28, 0
10, 14400, Note_on_c, 10, 35, 54
10, 14460, Note_on_c, 10, 35, 0
10, 14580, Note_on_c, 10, 35, 54
10, 14640, Note_on_c, 10, 35, 0
10, 14640, Note_on_c, 10, 40, 54
10, 14700, Note_on_c, 10, 40, 0
10, 14820, Note_on_c, 10, 40, 54
10, 14880, Note_on_c, 10, 40, 0
10, 14880, Note_on_c, 10, 33, 54
10, 14940, Note_on_c, 10, 33, 0
10, 15060, Note_on_c, 10, 33, 54
10, 15120, Note_on_c, 10, 33, 0
10, 15120, Note_on_c, 10, 33, 54
10, 15180, Note_on_c, 10, 33, 0
10, 15300, Note_on_c, 10, 33, 54
10, 15360, Note_on_c, 10, 33, 0
10, 15360, Note_on_c, 10, 33, 54
10, 15420, Note_on_c, 10, 33, 0
10, 15540, Note_on_c, 10, 33, 54
10, 15600, Note_on_c, 10, 33, 0
10, 15600, Note_on_c, 10, 33, 54
10, 15660, Note_on_c, 10, 33, 0
10, 15780, Note_on_c, 10, 33, 54
10, 15840, Note_on_c, 10, 33, 0
10, 15840, Note_on_c, 10, 26, 54
10, 15900, Note_on_c, 10, 26, 0
10, 16020, Note_on_c, 10, 26, 54
10, 16080, Note_on_c, 10, 26, 0
10, 16080, Note_on_c, 10, 26, 54
10, 16140, Note_on_c, 10, 26, 0
10, 16260, Note_on_c, 10, 26, 54
10, 16320, Note_on_c, 10, 26, 0
10, 16320, Note_on_c, 10, 38, 54
10, 16380, Note_on_c, 10, 38, 0
10, 16500, Note_on_c, 10, 38, 54
10, 16560, Note_on_c, 10, 38, 0
10, 16560, Note_on_c, 10, 26, 54
10, 16620, Note_on_c, 10, 26, 0
10, 16740, Note_on_c, 10, 26, 54
10, 16800, Note_on_c, 10, 26, 0
10, 16800, Note_on_c, 10, 31, 54
10, 16860, Note_on_c, 10, 31, 0
10, 16980, Note_on_c, 10, 31, 54
10, 17040, Note_on_c, 10, 31, 0
10, 17040, Note_on_c, 10, 31, 54
10, 17100, Note_on_c, 10, 31, 0
10, 17220, Note_on_c, 10, 31, 54
10, 17280, Note_on_c, 10, 31, 0
10, 17280, Note_on_c, 10, 31, 54
10, 17340, Note_on_c, 10, 31, 0
10, 17460, Note_on_c, 10, 31, 54
10, 17520, Note_on_c, 10, 31, 0
10, 17520, Note_on_c, 10, 31, 54
10, 17580, Note_on_c, 10, 31, 0
10, 17700, Note_on_c, 10, 31, 54
10, 17760, Note_on_c, 10, 31, 0
10, 17760, Note_on_c, 10, 36, 54
10, 17820, Note_on_c, 10, 36, 0
10, 17940, Note_on_c, 10, 36, 54
10, 18000, Note_on_c, 10, 36, 0
10, 18000, Note_on_c, 10, 24, 54
10, 18060, Note_on_c, 10, 24, 0
10, 18180, Note_on_c, 10, 24, 54
10, 18240, Note_on_c, 10, 24, 0
10, 18240, Note_on_c, 10, 36, 54
10, 18300, Note_on_c, 10, 36, 0
10, 18420, Note_on_c, 10, 36, 54
10, 18480, Note_on_c, 10, 36, 0
10, 18480, Note_on_c, 10, 24, 54
10, 18540, Note_on_c, 10, 24, 0
10, 18660, Note_on_c, 10, 24, 54
10, 18720, Note_on_c, 10, 24, 0
10, 18720, Note_on_c, 10, 28, 54
10, 18780, Note_on_c, 10, 28, 0
10, 18900, Note_on_c, 10, 28, 54
10, 18960, Note_on_c, 10, 28, 0
10, 18960, Note_on_c, 10, 28, 54
10, 19020, Note_on_c, 10, 28, 0
10, 19140, Note_on_c, 10, 28, 54
10, 19200, Note_on_c, 10, 28, 0
10, 19200, Note_on_c, 10, 28, 54
10, 19260, Note_on_c, 10, 28, 0
10, 19380, Note_on_c, 10, 28, 54
10, 19440, Note_on_c, 10, 28, 0
10, 19440, Note_on_c, 10, 28, 54
10, 19500, Note_on_c, 10, 28, 0
10, 19620, Note_on_c, 10, 28, 54
10, 19680, Note_on_c, 10, 28, 0
10, 19680, Note_on_c, 10, 33, 54
10, 19740, Note_on_c, 10, 33, 0
10, 19860, Note_on_c, 10, 33, 54
10, 19920, Note_on_c, 10, 33, 0
10, 19920, Note_on_c, 10, 33, 54
10, 19980, Note_on_c, 10, 33, 0
10, 20100, Note_on_c, 10, 33, 54
10, 20160, Note_on_c, 10, 33, 0
10, 20160, Note_on_c, 10, 33, 54
10, 20220, Note_on_c, 10, 33, 0
10, 20340, Note_on_c, 10, 33, 54
10, 20400, Note_on_c, 10, 33, 0
10, 20400, Note_on_c, 10, 33, 54
10, 20460, Note_on_c, 10, 33, 0
10, 20580, Note_on_c, 10, 33, 54
10, 20640, Note_on_c, 10, 33, 0
10, 20640, Note_on_c, 10, 26, 54
10, 20700, Note_on_c, 10, 26, 0
10, 20820, Note_on_c, 10, 26, 54
10, 20880, Note_on_c, 10, 26, 0
10, 20880, Note_on_c, 10, 26, 54
10, 20940, Note_on_c, 10, 26, 0
10, 21060, Note_on_c, 10, 26, 54
10, 21120, Note_on_c, 10, 26, 0
10, 21120, Note_on_c, 10, 26, 54
10, 21180, Note_on_c, 10, 26, 0
10, 21300, Note_on_c, 10, 26, 54
10, 21360, Note_on_c, 10, 26, 0
10, 21360, Note_on_c, 10, 26, 54
10, 21420, Note_on_c, 10, 26, 0
10, 21540, Note_on_c, 10, 26, 54
10, 21600, Note_on_c, 10, 26, 0
10, 21600, Note_on_c, 10, 29, 54
10, 21660, Note_on_c, 10, 29, 0
10, 21780, Note_on_c, 10, 29, 54
10, 21840, Note_on_c, 10, 29, 0
10, 21840, Note_on_c, 10, 29, 54
10, 21900, Note_on_c, 10, 29, 0
10, 22020, Note_on_c, 10, 29, 54
10, 22080, Note_on_c, 10, 29, 0
10, 22080, Note_on_c, 10, 29, 54
10, 22140, Note_on_c, 10, 29, 0
10, 22260, Note_on_c, 10, 29, 54
10, 22320, Note_on_c, 10, 29, 0
10, 22320, Note_on_c, 10, 29, 54
10, 22380, Note_on_c, 10, 29, 0
10, 22500, Note_on_c, 10, 29, 54
10, 22560, Note_on_c, 10, 29, 0
10, 22560, Note_on_c, 10, 28, 54
10, 22620, Note_on_c, 10, 28, 0
10, 22740, Note_on_c, 10, 28, 54
10, 22800, Note_on_c, 10, 28, 0
10, 22800, Note_on_c, 10, 34, 54
10, 22860, Note_on_c, 10, 34, 0
10, 22980, Note_on_c, 10, 34, 54
10, 23040, Note_on_c, 10, 34, 0
10, 23040, Note_on_c, 10, 33, 54
10, 23100, Note_on_c, 10, 33, 0
10, 23220, Note_on_c, 10, 33, 54
10, 23280, Note_on_c, 10, 33, 0
10, 23280, Note_on_c, 10, 33, 54
10, 23340, Note_on_c, 10, 33, 0
10, 23460, Note_on_c, 10, 33, 54
10, 23520, Note_on_c, 10, 33, 0
10, 23520, Note_on_c, 10, 26, 54
10, 23580, Note_on_c, 10, 26, 0
10, 23700, Note_on_c, 10, 26, 54
10, 23760, Note_on_c, 10, 26, 0
10, 23760, Note_on_c, 10, 38, 54
10, 23820, Note_on_c, 10, 38, 0
10, 23940, Note_on_c, 10, 38, 54
10, 24000, Note_on_c, 10, 38, 0
10, 24000, Note_on_c, 10, 31, 54
10, 24060, Note_on_c, 10, 31, 0
10, 24180, Note_on_c, 10, 31, 54
10, 24240, Note_on_c, 10, 31, 0
10, 24240, Note_on_c, 10, 31, 54
10, 24300, Note_on_c, 10, 31, 0
10, 24420, Note_on_c, 10, 31, 54
10, 24480, Note_on_c, 10, 31, 0
10, 24480, Note_on_c, 10, 36, 54
10, 24540, Note_on_c, 10, 36, 0
10, 24660, Note_on_c, 10, 36, 54
10, 24720, Note_on_c, 10, 36, 0
10, 24720, Note_on_c, 10, 39, 54
10, 24780, Note_on_c, 10, 39, 0
10, 24900, Note_on_c, 10, 39, 54
10, 24960, Note_on_c, 10, 39, 0
10, 24960, Note_on_c, 10, 38, 54
10, 25020, Note_on_c, 10, 38, 0
10, 25140, Note_on_c, 10, 38, 54
10, 25200, Note_on_c, 10, 38, 0
10, 25200, Note_on_c, 10, 31, 54
10, 25260, Note_on_c, 10, 31, 0
10, 25380, Note_on_c, 10, 31, 54
10, 25440, Note_on_c, 10, 31, 0
10, 25440, Note_on_c, 10, 36, 54
10, 25500, Note_on_c, 10, 36, 0
10, 25620, Note_on_c, 10, 36, 54
10, 25680, Note_on_c, 10, 36, 0
10, 25680, Note_on_c, 10, 36, 54
10, 25740, Note_on_c, 10, 36, 0
10, 25860, Note_on_c, 10, 36, 54
10, 25920, Note_on_c, 10, 36, 0
10, 25920, Note_on_c, 10, 36, 54
10, 25980, Note_on_c, 10, 36, 0
10, 26100, Note_on_c, 10, 36, 54
10, 26160, Note_on_c, 10, 36, 0
10, 26160, Note_on_c, 10, 24, 54
10, 26220, Note_on_c, 10, 24, 0
10, 26340, Note_on_c, 10, 24, 54
10, 26400, Note_on_c, 10, 24, 0
10, 26400, Note_on_c, 10, 28, 54
10, 26460, Note_on_c, 10, 28, 0
10, 26580, Note_on_c, 10, 28, 54
10, 26640, Note_on_c, 10, 28, 0
10, 26640, Note_on_c, 10, 28, 54
10, 26700, Note_on_c, 10, 28, 0
10, 26820, Note_on_c, 10, 31, 54
10, 26880, Note_on_c, 10, 31, 0
10, 26880, Note_on_c, 10, 28, 54
10, 26940, Note_on_c, 10, 28, 0
10, 27060, Note_on_c, 10, 28, 54
10, 27120, Note_on_c, 10, 28, 0
10, 27120, Note_on_c, 10, 28, 54
10, 27180, Note_on_c, 10, 28, 0
10, 27300, Note_on_c, 10, 28, 54
10, 27360, Note_on_c, 10, 28, 0
10, 27360, Note_on_c, 10, 33, 54
10, 27420, Note_on_c, 10, 33, 0
10, 27540, Note_on_c, 10, 33, 54
10, 27600, Note_on_c, 10, 33, 0
10, 27600, Note_on_c, 10, 33, 54
10, 27660, Note_on_c, 10, 33, 0
10, 27780, Note_on_c, 10, 33, 54
10, 27840, Note_on_c, 10, 33, 0
10, 27840, Note_on_c, 10, 33, 54
10, 27900, Note_on_c, 10, 33, 0
10, 28020, Note_on_c, 10, 33, 54
10, 28080, Note_on_c, 10, 33, 0
10, 28080, Note_on_c, 10, 33, 54
10, 28140, Note_on_c, 10, 33, 0
10, 28260, Note_on_c, 10, 33, 54
10, 28320, Note_on_c, 10, 33, 0
10, 28320, Note_on_c, 10, 26, 54
10, 28380, Note_on_c, 10, 26, 0
10, 28500, Note_on_c, 10, 26, 54
10, 28560, Note_on_c, 10, 26, 0
10, 28560, Note_on_c, 10, 26, 54
10, 28620, Note_on_c, 10, 26, 0
10, 28740, Note_on_c, 10, 26, 54
10, 28800, Note_on_c, 10, 26, 0
10, 28800, Note_on_c, 10, 26, 54
10, 28860, Note_on_c, 10, 26, 0
10, 28980, Note_on_c, 10, 26, 54
10, 29040, Note_on_c, 10, 26, 0
10, 29040, Note_on_c, 10, 26, 54
10, 29100, Note_on_c, 10, 26, 0
10, 29220, Note_on_c, 10, 26, 54
10, 29280, Note_on_c, 10, 26, 0
10, 29280, Note_on_c, 10, 28, 54
10, 29340, Note_on_c, 10, 28, 0
10, 29460, Note_on_c, 10, 28, 54
10, 29520, Note_on_c, 10, 28, 0
10, 29520, Note_on_c, 10, 28, 54
10, 29580, Note_on_c, 10, 28, 0
10, 29700, Note_on_c, 10, 28, 54
10, 29760, Note_on_c, 10, 28, 0
10, 29760, Note_on_c, 10, 35, 54
10, 29820, Note_on_c, 10, 35, 0
10, 29940, Note_on_c, 10, 35, 54
10, 30000, Note_on_c, 10, 35, 0
10, 30000, Note_on_c, 10, 40, 54
10, 30060, Note_on_c, 10, 40, 0
10, 30180, Note_on_c, 10, 40, 54
10, 30240, Note_on_c, 10, 40, 0
10, 30240, Note_on_c, 10, 33, 54
10, 30300, Note_on_c, 10, 33, 0
10, 30420, Note_on_c, 10, 33, 54
10, 30480, Note_on_c, 10, 33, 0
10, 30480, Note_on_c, 10, 33, 54
10, 30540, Note_on_c, 10, 33, 0
10, 30660, Note_on_c, 10, 33, 54
10, 30720, Note_on_c, 10, 33, 0
10, 30720, Note_on_c, 10, 33, 54
10, 30780, Note_on_c, 10, 33, 0
10, 30900, Note_on_c, 10, 33, 54
10, 30960, Note_on_c, 10, 33, 0
10, 30960, Note_on_c, 10, 33, 54
10, 31020, Note_on_c, 10, 33, 0
10, 31140, Note_on_c, 10, 33, 54
10, 31200, Note_on_c, 10, 33, 0
10, 31200, Note_on_c, 10, 26, 54
10, 31260, Note_on_c, 10, 26, 0
10, 31380, Note_on_c, 10, 26, 54
10, 31440, Note_on_c, 10, 26, 0
10, 31440, Note_on_c, 10, 26, 54
10, 31500, Note_on_c, 10, 26, 0
10, 31620, Note_on_c, 10, 26, 54
10, 31680, Note_on_c, 10, 26, 0
10, 31680, Note_on_c, 10, 38, 54
10, 31740, Note_on_c, 10, 38, 0
10, 31860, Note_on_c, 10, 38, 54
10, 31920, Note_on_c, 10, 38, 0
10, 31920, Note_on_c, 10, 26, 54
10, 31980, Note_on_c, 10, 26, 0
10, 32100, Note_on_c, 10, 26, 54
10, 32160, Note_on_c, 10, 26, 0
10, 32160, Note_on_c, 10, 31, 54
10, 32220, Note_on_c, 10, 31, 0
10, 32340, Note_on_c, 10, 31, 54
10, 32400, Note_on_c, 10, 31, 0
10, 32400, Note_on_c, 10, 31, 54
10, 32460, Note_on_c, 10, 31, 0
10, 32580, Note_on_c, 10, 31, 54
10, 32640, Note_on_c, 10, 31, 0
10, 32640, Note_on_c, 10, 31, 54
10, 32700, Note_on_c, 10, 31, 0
10, 32820, Note_on_c, 10, 31, 54
10, 32880, Note_on_c, 10, 31, 0
10, 32880, Note_on_c, 10, 31, 54
10, 32940, Note_on_c, 10, 31, 0
10, 33060, Note_on_c, 10, 31, 54
10, 33120, Note_on_c, 10, 31, 0
10, 33120, Note_on_c, 10, 36, 54
10, 33180, Note_on_c, 10, 36, 0
10, 33300, Note_on_c, 10, 36, 54
10, 33360, Note_on_c, 10, 36, 0
10, 33360, Note_on_c, 10, 24, 54
10, 33420, Note_on_c, 10, 24, 0
10, 33540, Note_on_c, 10, 24, 54
10, 33600, Note_on_c, 10, 24, 0
10, 33600, Note_on_c, 10, 36, 54
10, 33660, Note_on_c, 10, 36, 0
10, 33780, Note_on_c, 10, 36, 54
10, 33840, Note_on_c, 10, 36, 0
10, 33840, Note_on_c, 10, 24, 54
10, 33900, Note_on_c, 10, 24, 0
10, 34020, Note_on_c, 10, 24, 54
10, 34080, Note_on_c, 10, 24, 0
10, 34080, Note_on_c, 10, 28, 54
10, 34140, Note_on_c, 10, 28, 0
10, 34260, Note_on_c, 10, 28, 54
10, 34320, Note_on_c, 10, 28, 0
10, 34320, Note_on_c, 10, 28, 54
10, 34380, Note_on_c, 10, 28, 0
10, 34500, Note_on_c, 10, 28, 54
10, 34560, Note_on_c, 10, 28, 0
10, 34560, Note_on_c, 10, 28, 54
10, 34620, Note_on_c, 10, 28, 0
10, 34740, Note_on_c, 10, 28, 54
10, 34800, Note_on_c, 10, 28, 0
10, 34800, Note_on_c, 10, 28, 54
10, 34860, Note_on_c, 10, 28, 0
10, 34980, Note_on_c, 10, 28, 54
10, 35040, Note_on_c, 10, 28, 0
10, 35040, Note_on_c, 10, 33, 54
10, 35100, Note_on_c, 10, 33, 0
10, 35220, Note_on_c, 10, 33, 54
10, 35280, Note_on_c, 10, 33, 0
10, 35280, Note_on_c, 10, 33, 54
10, 35340, Note_on_c, 10, 33, 0
10, 35460, Note_on_c, 10, 33, 54
10, 35520, Note_on_c, 10, 33, 0
10, 35520, Note_on_c, 10, 33, 54
10, 35580, Note_on_c, 10, 33, 0
10, 35700, Note_on_c, 10, 33, 54
10, 35760, Note_on_c, 10, 33, 0
10, 35760, Note_on_c, 10, 33, 54
10, 35820, Note_on_c, 10, 33, 0
10, 35940, Note_on_c, 10, 33, 54
10, 36000, Note_on_c, 10, 33, 0
10, 36000, Note_on_c, 10, 26, 54
10, 36060, Note_on_c, 10, 26, 0
10, 36180, Note_on_c, 10, 26, 54
10, 36240, Note_on_c, 10, 26, 0
10, 36240, Note_on_c, 10, 26, 54
10, 36300, Note_on_c, 10, 26, 0
10, 36420, Note_on_c, 10, 26, 54
10, 36480, Note_on_c, 10, 26, 0
10, 36480, Note_on_c, 10, 26, 54
10, 36540, Note_on_c, 10, 26, 0
10, 36660, Note_on_c, 10, 26, 54
10, 36720, Note_on_c, 10, 26, 0
10, 36720, Note_on_c, 10, 26, 54
10, 36780, Note_on_c, 10, 26, 0
10, 36900, Note_on_c, 10, 26, 54
10, 36960, Note_on_c, 10, 26, 0
10, 36960, Note_on_c, 10, 29, 54
10, 37020, Note_on_c, 10, 29, 0
10, 37140, Note_on_c, 10, 29, 54
10, 37200, Note_on_c, 10, 29, 0
10, 37200, Note_on_c, 10, 29, 54
10, 37260, Note_on_c, 10, 29, 0
10, 37380, Note_on_c, 10, 29, 54
10, 37440, Note_on_c, 10, 29, 0
10, 37440, Note_on_c, 10, 29, 54
10, 37500, Note_on_c, 10, 29, 0
10, 37620, Note_on_c, 10, 29, 54
10, 37680, Note_on_c, 10, 29, 0
10, 37680, Note_on_c, 10, 29, 54
10, 37740, Note_on_c, 10, 29, 0
10, 37860, Note_on_c, 10, 29, 54
10, 37920, Note_on_c, 10, 29, 0
10, 37920, Note_on_c, 10, 28, 54
10, 37980, Note_on_c, 10, 28, 0
10, 38100, Note_on_c, 10, 28, 54
10, 38160, Note_on_c, 10, 28, 0
10, 38160, Note_on_c, 10, 34, 54
10, 38220, Note_on_c, 10, 34, 0
10, 38340, Note_on_c, 10, 34, 54
10, 38400, Note_on_c, 10, 34, 0
10, 38400, Note_on_c, 10, 33, 54
10, 38460, Note_on_c, 10, 33, 0
10, 38580, Note_on_c, 10, 33, 54
10, 38640, Note_on_c, 10, 33, 0
10, 38640, Note_on_c, 10, 33, 54
10, 38700, Note_on_c, 10, 33, 0
10, 38820, Note_on_c, 10, 33, 54
10, 38880, Note_on_c, 10, 33, 0
10, 38880, Note_on_c, 10, 26, 54
10, 38940, Note_on_c, 10, 26, 0
10, 39060, Note_on_c, 10, 26, 54
10, 39120, Note_on_c, 10, 26, 0
10, 39120, Note_on_c, 10, 38, 54
10, 39180, Note_on_c, 10, 38, 0
10, 39300, Note_on_c, 10, 38, 54
10, 39360, Note_on_c, 10, 38, 0
10, 39360, Note_on_c, 10, 31, 54
10, 39420, Note_on_c, 10, 31, 0
10, 39540, Note_on_c, 10, 31, 54
10, 39600, Note_on_c, 10, 31, 0
10, 39600, Note_on_c, 10, 31, 54
10, 39660, Note_on_c, 10, 31, 0
10, 39780, Note_on_c, 10, 31, 54
10, 39840, Note_on_c, 10, 31, 0
10, 39840, Note_on_c, 10, 36, 65
10, 39900, Note_on_c, 10, 36, 0
10, 39900, Note_on_c, 10, 43, 65
10, 39960, Note_on_c, 10, 43, 0
10, 39960, Note_on_c, 10, 48, 65
10, 40020, Note_on_c, 10, 48, 0
10, 40020, Note_on_c, 10, 52, 65
10, 40080, Note_on_c, 10, 52, 0
10, 40080, Note_on_c, 10, 53, 65
10, 40140, Note_on_c, 10, 53, 0
10, 40140, Note_on_c, 10, 56, 65
10, 40200, Note_on_c, 10, 56, 0
10, 40200, Note_on_c, 10, 60, 65
10, 40260, Note_on_c, 10, 60, 0
10, 40260, Note_on_c, 10, 62, 65
10, 40320, Note_on_c, 10, 62, 0
10, 40320, Note_on_c, 10, 48, 65
10, 40320, Note_on_c, 10, 55, 65
10, 40320, Note_on_c, 10, 64, 65
10, 40560, Note_on_c, 10, 64, 0
10, 40560, Note_on_c, 10, 55, 0
10, 40560, Note_on_c, 10, 48, 0
10, 40560, Note_on_c, 10, 35, 65
10, 40560, Note_on_c, 10, 48, 65
10, 40680, Note_on_c, 10, 48, 0
10, 40680, Note_on_c, 10, 35, 0
10, 40680, End_track
11, 0, Start_track
11, 0, MIDI_port, 0
11, 0, Title_t, "*"
11, 0, End_track
12, 0, Start_track
12, 0, MIDI_port, 0
12, 0, Title_t, "All Of Me 1931 Vs2"
12, 0, End_track
13, 0, Start_track
13, 0, MIDI_port, 0
13, 0, Title_t, "Words & Music by Seymour Simons & Gerald Marks "
13, 0, End_track
14, 0, Start_track
14, 0, MIDI_port, 0
14, 0, Title_t, "\251 1931 Francis, Day & Hunter Ltd. London"
14, 0, End_track
15, 0, Start_track
15, 0, MIDI_port, 0
15, 0, Title_t, "*"
15, 0, End_track
16, 0, Start_track
16, 0, MIDI_port, 0
16, 0, Title_t, "sequence & karaoke by James Pitt-Payne, London UK"
16, 0, End_track
17, 0, Start_track
17, 0, MIDI_port, 0
17, 0, Title_t, "on Sunday 29 January 2017 at 12.31"
17, 0, End_track
18, 0, Start_track
18, 0, MIDI_port, 0
18, 0, Title_t, "in association with Veda Meyer-Castens"
18, 0, End_track
19, 0, Start_track
19, 0, MIDI_port, 0
19, 0, Title_t, "*"
19, 0, End_track
20, 0, Start_track
20, 0, MIDI_port, 0
20, 0, Title_t, "James Pitt-Payne"
20, 0, End_track
0, 0, End_of_file